M48
;DRILL file {KiCad 4.0.2-stable} date Sun 10 Apr 2016 09:46:27 PM EDT
;FORMAT={-:-/ absolute / inch / decimal}
FMAT,2
INCH,TZ
T1C0.015
T2C0.020
T3C0.022
T4C0.028
T5C0.040
%
G90
G05
M72
T1
X7.4103Y-5.47
X7.45Y-5.61
X7.47Y-5.86
X7.49Y-5.79
X7.53Y-5.78
X7.56Y-6.04
X7.62Y-5.59
X7.65Y-5.63
X7.74Y-5.75
X7.83Y-5.45
X7.83Y-5.96
X7.92Y-5.63
X8.03Y-5.71
X8.07Y-5.71
X8.07Y-5.81
X8.11Y-5.71
X8.12Y-5.83
X8.13Y-5.39
X8.15Y-5.71
X8.16Y-5.83
X8.23Y-5.46
X8.29Y-5.54
X8.33Y-5.92
X8.3406Y-5.46
X8.37Y-6.0245
X8.46Y-5.4694
X8.49Y-5.51
X8.6Y-5.87
X8.62Y-5.7
X8.62Y-6.04
T4
X7.73Y-5.32
X7.83Y-5.32
X8.705Y-5.495
X8.705Y-5.595
T5
X6.955Y-5.395
X7.055Y-5.395
X7.155Y-5.395
X7.255Y-5.395
X8.6755Y-5.77
X8.6755Y-5.87
X8.6755Y-5.97
T2
X7.6422Y-6.0276G85X7.6422Y-6.002
G05
X7.9178Y-6.0276G85X7.9178Y-6.002
G05
T3
X7.6756Y-5.9085G85X7.6874Y-5.9085
G05
X7.8725Y-5.9085G85X7.8843Y-5.9085
G05
T0
M30
