G04 #@! TF.FileFunction,Soldermask,Top*
%FSLAX46Y46*%
G04 Gerber Fmt 4.6, Leading zero omitted, Abs format (unit mm)*
G04 Created by KiCad (PCBNEW 4.0.2-stable) date Sun 10 Apr 2016 09:46:26 PM EDT*
%MOMM*%
G01*
G04 APERTURE LIST*
%ADD10C,0.150000*%
%ADD11R,1.727200X2.032000*%
%ADD12O,1.727200X2.032000*%
%ADD13R,1.500000X1.500000*%
%ADD14C,1.500000*%
%ADD15R,1.000000X1.600000*%
%ADD16R,1.100000X0.700000*%
%ADD17R,1.400000X0.700000*%
%ADD18R,1.400000X1.000000*%
%ADD19R,1.200000X0.700000*%
%ADD20R,1.200000X1.200000*%
%ADD21R,0.800000X1.200000*%
%ADD22R,3.200000X1.200000*%
%ADD23R,1.900000X1.500000*%
%ADD24R,0.500000X0.500000*%
%ADD25R,0.450000X1.450000*%
%ADD26R,2.032000X1.727200*%
%ADD27O,2.032000X1.727200*%
%ADD28R,0.750000X0.800000*%
%ADD29R,0.600000X0.500000*%
%ADD30R,1.000000X1.250000*%
%ADD31R,0.797560X0.797560*%
%ADD32R,0.400000X1.350000*%
%ADD33O,1.250000X0.950000*%
%ADD34O,1.000000X1.550000*%
%ADD35R,0.800100X0.800100*%
%ADD36R,0.400000X0.600000*%
%ADD37R,0.600000X0.400000*%
%ADD38R,1.060000X0.650000*%
G04 APERTURE END LIST*
D10*
D11*
X176657000Y-137033000D03*
D12*
X179197000Y-137033000D03*
X181737000Y-137033000D03*
X184277000Y-137033000D03*
D13*
X198882000Y-135128000D03*
D14*
X196342000Y-135128000D03*
D13*
X221107000Y-142113000D03*
D14*
X221107000Y-139573000D03*
D15*
X208002000Y-136652000D03*
X205002000Y-136652000D03*
D16*
X195362000Y-142268000D03*
X199862000Y-142268000D03*
X195362000Y-145768000D03*
X199862000Y-145768000D03*
D17*
X188222000Y-143358000D03*
X188222000Y-144458000D03*
X188222000Y-145558000D03*
X188222000Y-146658000D03*
X188222000Y-147758000D03*
X188222000Y-148858000D03*
X188222000Y-149958000D03*
X188222000Y-151058000D03*
D18*
X188222000Y-141458000D03*
D19*
X188322000Y-152058000D03*
D20*
X184022000Y-152858000D03*
D21*
X177822000Y-152858000D03*
D22*
X174222000Y-152858000D03*
D23*
X173222000Y-139558000D03*
D24*
X172522000Y-140558000D03*
D25*
X209427000Y-143608000D03*
X208777000Y-143608000D03*
X208127000Y-143608000D03*
X207477000Y-143608000D03*
X206827000Y-143608000D03*
X206177000Y-143608000D03*
X205527000Y-143608000D03*
X204877000Y-143608000D03*
X204227000Y-143608000D03*
X203577000Y-143608000D03*
X203577000Y-149508000D03*
X204227000Y-149508000D03*
X204877000Y-149508000D03*
X205527000Y-149508000D03*
X206177000Y-149508000D03*
X206827000Y-149508000D03*
X207477000Y-149508000D03*
X208127000Y-149508000D03*
X208777000Y-149508000D03*
X209427000Y-149508000D03*
D26*
X220357000Y-151638000D03*
D27*
X220357000Y-149098000D03*
X220357000Y-146558000D03*
D28*
X217932000Y-151523000D03*
X217932000Y-153023000D03*
X211582000Y-153023000D03*
X211582000Y-151523000D03*
X215646000Y-142482000D03*
X215646000Y-140982000D03*
D29*
X189950000Y-146050000D03*
X191050000Y-146050000D03*
D30*
X213852000Y-139954000D03*
X211852000Y-139954000D03*
D29*
X206544000Y-151130000D03*
X205444000Y-151130000D03*
D30*
X213852000Y-141986000D03*
X211852000Y-141986000D03*
D29*
X213402000Y-143510000D03*
X212302000Y-143510000D03*
D31*
X215912700Y-149098000D03*
X217411300Y-149098000D03*
X191897000Y-150888700D03*
X191897000Y-152387300D03*
X218681300Y-136398000D03*
X217182700Y-136398000D03*
X194437000Y-139814300D03*
X194437000Y-138315700D03*
X197612000Y-139814300D03*
X197612000Y-138315700D03*
X200914000Y-139814300D03*
X200914000Y-138315700D03*
D32*
X196311100Y-150075460D03*
X196961100Y-150075460D03*
X197611100Y-150075460D03*
X198261100Y-150075460D03*
X198911100Y-150075460D03*
D33*
X195111100Y-150075460D03*
X200111100Y-150075460D03*
D34*
X194111100Y-152775460D03*
X201111100Y-152775460D03*
D35*
X213680000Y-137906760D03*
X215580000Y-137906760D03*
X214630000Y-135907780D03*
X210124000Y-137906760D03*
X212024000Y-137906760D03*
X211074000Y-135907780D03*
D36*
X214572000Y-149098000D03*
X213672000Y-149098000D03*
X192474000Y-149606000D03*
X191574000Y-149606000D03*
D37*
X218567000Y-138753000D03*
X218567000Y-137853000D03*
X195707000Y-139885000D03*
X195707000Y-140785000D03*
X198882000Y-139885000D03*
X198882000Y-140785000D03*
X202184000Y-139885000D03*
X202184000Y-140785000D03*
D36*
X216212000Y-147066000D03*
X217112000Y-147066000D03*
D37*
X202184000Y-146500000D03*
X202184000Y-145600000D03*
X210058000Y-140150000D03*
X210058000Y-139250000D03*
D38*
X215857000Y-153223000D03*
X215857000Y-152273000D03*
X215857000Y-151323000D03*
X213657000Y-151323000D03*
X213657000Y-153223000D03*
X217762000Y-145603000D03*
X217762000Y-144653000D03*
X217762000Y-143703000D03*
X215562000Y-143703000D03*
X215562000Y-145603000D03*
M02*
