G04 #@! TF.FileFunction,Copper,L2,Inr,Signal*
%FSLAX46Y46*%
G04 Gerber Fmt 4.6, Leading zero omitted, Abs format (unit mm)*
G04 Created by KiCad (PCBNEW 4.0.2-stable) date Sun 10 Apr 2016 09:46:26 PM EDT*
%MOMM*%
G01*
G04 APERTURE LIST*
%ADD10C,0.150000*%
%ADD11R,1.727200X2.032000*%
%ADD12O,1.727200X2.032000*%
%ADD13R,1.500000X1.500000*%
%ADD14C,1.500000*%
%ADD15R,2.032000X1.727200*%
%ADD16O,2.032000X1.727200*%
%ADD17O,1.250000X0.950000*%
%ADD18O,1.000000X1.550000*%
%ADD19C,0.762000*%
%ADD20C,0.203200*%
%ADD21C,0.203000*%
G04 APERTURE END LIST*
D10*
D11*
X176657000Y-137033000D03*
D12*
X179197000Y-137033000D03*
X181737000Y-137033000D03*
X184277000Y-137033000D03*
D13*
X198882000Y-135128000D03*
D14*
X196342000Y-135128000D03*
D13*
X221107000Y-142113000D03*
D14*
X221107000Y-139573000D03*
D15*
X220357000Y-151638000D03*
D16*
X220357000Y-149098000D03*
X220357000Y-146558000D03*
D17*
X195111100Y-150075460D03*
X200111100Y-150075460D03*
D18*
X194111100Y-152775460D03*
X201111100Y-152775460D03*
D19*
X210566000Y-140716000D03*
X214884000Y-138922000D03*
X203962000Y-145034000D03*
X204978000Y-147574000D03*
X209042000Y-138684000D03*
X204978000Y-145034000D03*
X205994000Y-145034000D03*
X206502000Y-136906000D03*
X198882000Y-138430000D03*
X196596000Y-146050000D03*
X193548000Y-141986000D03*
X191262000Y-146812000D03*
X188222000Y-138938000D03*
X211852000Y-138684000D03*
X206248000Y-148082000D03*
X218948000Y-144780000D03*
X215646000Y-139954000D03*
X198882000Y-151384000D03*
X192024000Y-153416000D03*
X218440000Y-149098000D03*
X211582000Y-150368000D03*
X218948000Y-153416000D03*
X189738000Y-148844000D03*
X194310000Y-143002000D03*
X190246000Y-147066000D03*
X189230000Y-142494000D03*
X207010000Y-145034000D03*
X201168000Y-143002000D03*
X212598000Y-153023000D03*
X207264000Y-148082000D03*
D20*
X196342000Y-135128000D02*
X195072000Y-136398000D01*
D21*
G36*
X195209863Y-135457664D02*
X195308351Y-135695434D01*
X195482335Y-135777654D01*
X196030489Y-135229500D01*
X196653511Y-135229500D01*
X197201665Y-135777654D01*
X197375649Y-135695434D01*
X197514115Y-135256680D01*
X197511744Y-135229500D01*
X197717537Y-135229500D01*
X197717537Y-135878000D01*
X197745882Y-136028640D01*
X197834910Y-136166993D01*
X197970751Y-136259809D01*
X198132000Y-136292463D01*
X199632000Y-136292463D01*
X199782640Y-136264118D01*
X199920993Y-136175090D01*
X200013809Y-136039249D01*
X200046463Y-135878000D01*
X200046463Y-135229500D01*
X200344425Y-135229500D01*
X200356478Y-135258598D01*
X200365249Y-135302695D01*
X200390228Y-135340079D01*
X200407434Y-135381617D01*
X200439226Y-135413409D01*
X200464206Y-135450794D01*
X200501591Y-135475774D01*
X200533382Y-135507565D01*
X200574919Y-135524770D01*
X200612305Y-135549751D01*
X200656405Y-135558523D01*
X200697941Y-135575728D01*
X200742900Y-135575728D01*
X200787000Y-135584500D01*
X220097361Y-135584500D01*
X220217618Y-136189075D01*
X220285780Y-136353634D01*
X220836383Y-137177669D01*
X220962331Y-137303617D01*
X221786366Y-137854220D01*
X221950925Y-137922383D01*
X221950930Y-137922383D01*
X222555500Y-138042639D01*
X222555500Y-153721500D01*
X212969682Y-153721500D01*
X213043500Y-153690999D01*
X213265221Y-153469665D01*
X213385363Y-153180331D01*
X213385636Y-152867044D01*
X213265999Y-152577500D01*
X213044665Y-152355779D01*
X212755331Y-152235637D01*
X212442044Y-152235364D01*
X212152500Y-152355001D01*
X211930779Y-152576335D01*
X211810637Y-152865669D01*
X211810364Y-153178956D01*
X211930001Y-153468500D01*
X212151335Y-153690221D01*
X212226663Y-153721500D01*
X201707244Y-153721500D01*
X201751739Y-153691805D01*
X201948405Y-153397824D01*
X202017600Y-153050960D01*
X202017600Y-152775960D01*
X201111600Y-152775960D01*
X201111600Y-152795960D01*
X201110600Y-152795960D01*
X201110600Y-152775960D01*
X200204600Y-152775960D01*
X200204600Y-153050960D01*
X200273795Y-153397824D01*
X200470461Y-153691805D01*
X200514956Y-153721500D01*
X194707244Y-153721500D01*
X194751739Y-153691805D01*
X194948405Y-153397824D01*
X195017600Y-153050960D01*
X195017600Y-152775960D01*
X194111600Y-152775960D01*
X194111600Y-152795960D01*
X194110600Y-152795960D01*
X194110600Y-152775960D01*
X193204600Y-152775960D01*
X193204600Y-153050960D01*
X193273795Y-153397824D01*
X193470461Y-153691805D01*
X193514956Y-153721500D01*
X172668500Y-153721500D01*
X172668500Y-152499960D01*
X193204600Y-152499960D01*
X193204600Y-152774960D01*
X194110600Y-152774960D01*
X194110600Y-151695585D01*
X194111600Y-151695585D01*
X194111600Y-152774960D01*
X195017600Y-152774960D01*
X195017600Y-152499960D01*
X200204600Y-152499960D01*
X200204600Y-152774960D01*
X201110600Y-152774960D01*
X201110600Y-151695585D01*
X201111600Y-151695585D01*
X201111600Y-152774960D01*
X202017600Y-152774960D01*
X202017600Y-152499960D01*
X201948405Y-152153096D01*
X201751739Y-151859115D01*
X201457541Y-151662773D01*
X201253402Y-151605199D01*
X201111600Y-151695585D01*
X201110600Y-151695585D01*
X200968798Y-151605199D01*
X200764659Y-151662773D01*
X200470461Y-151859115D01*
X200273795Y-152153096D01*
X200204600Y-152499960D01*
X195017600Y-152499960D01*
X194948405Y-152153096D01*
X194751739Y-151859115D01*
X194457541Y-151662773D01*
X194253402Y-151605199D01*
X194111600Y-151695585D01*
X194110600Y-151695585D01*
X193968798Y-151605199D01*
X193764659Y-151662773D01*
X193470461Y-151859115D01*
X193273795Y-152153096D01*
X193204600Y-152499960D01*
X172668500Y-152499960D01*
X172668500Y-150213851D01*
X194090531Y-150213851D01*
X194146509Y-150412334D01*
X194337432Y-150698421D01*
X194623303Y-150889668D01*
X194960600Y-150956960D01*
X195110600Y-150956960D01*
X195110600Y-150075960D01*
X195111600Y-150075960D01*
X195111600Y-150956960D01*
X195261600Y-150956960D01*
X195598897Y-150889668D01*
X195884768Y-150698421D01*
X196075691Y-150412334D01*
X196131669Y-150213851D01*
X199090531Y-150213851D01*
X199146509Y-150412334D01*
X199337432Y-150698421D01*
X199623303Y-150889668D01*
X199960600Y-150956960D01*
X200110600Y-150956960D01*
X200110600Y-150075960D01*
X200111600Y-150075960D01*
X200111600Y-150956960D01*
X200261600Y-150956960D01*
X200598897Y-150889668D01*
X200884768Y-150698421D01*
X201075691Y-150412334D01*
X201131669Y-150213851D01*
X201040975Y-150075960D01*
X200111600Y-150075960D01*
X200110600Y-150075960D01*
X199181225Y-150075960D01*
X199090531Y-150213851D01*
X196131669Y-150213851D01*
X196040975Y-150075960D01*
X195111600Y-150075960D01*
X195110600Y-150075960D01*
X194181225Y-150075960D01*
X194090531Y-150213851D01*
X172668500Y-150213851D01*
X172668500Y-149937069D01*
X194090531Y-149937069D01*
X194181225Y-150074960D01*
X195110600Y-150074960D01*
X195110600Y-149193960D01*
X195111600Y-149193960D01*
X195111600Y-150074960D01*
X196040975Y-150074960D01*
X196131669Y-149937069D01*
X199090531Y-149937069D01*
X199181225Y-150074960D01*
X200110600Y-150074960D01*
X200110600Y-149193960D01*
X200111600Y-149193960D01*
X200111600Y-150074960D01*
X201040975Y-150074960D01*
X201131669Y-149937069D01*
X201075691Y-149738586D01*
X200884768Y-149452499D01*
X200598897Y-149261252D01*
X200261600Y-149193960D01*
X200111600Y-149193960D01*
X200110600Y-149193960D01*
X199960600Y-149193960D01*
X199623303Y-149261252D01*
X199337432Y-149452499D01*
X199146509Y-149738586D01*
X199090531Y-149937069D01*
X196131669Y-149937069D01*
X196075691Y-149738586D01*
X195884768Y-149452499D01*
X195598897Y-149261252D01*
X195261600Y-149193960D01*
X195111600Y-149193960D01*
X195110600Y-149193960D01*
X194960600Y-149193960D01*
X194623303Y-149261252D01*
X194337432Y-149452499D01*
X194146509Y-149738586D01*
X194090531Y-149937069D01*
X172668500Y-149937069D01*
X172668500Y-147221956D01*
X189458364Y-147221956D01*
X189578001Y-147511500D01*
X189799335Y-147733221D01*
X190088669Y-147853363D01*
X190401956Y-147853636D01*
X190691500Y-147733999D01*
X190695550Y-147729956D01*
X204190364Y-147729956D01*
X204310001Y-148019500D01*
X204531335Y-148241221D01*
X204820669Y-148361363D01*
X205133956Y-148361636D01*
X205423500Y-148241999D01*
X205427550Y-148237956D01*
X206476364Y-148237956D01*
X206596001Y-148527500D01*
X206817335Y-148749221D01*
X207106669Y-148869363D01*
X207419956Y-148869636D01*
X207709500Y-148749999D01*
X207931221Y-148528665D01*
X208051363Y-148239331D01*
X208051636Y-147926044D01*
X207931999Y-147636500D01*
X207710665Y-147414779D01*
X207421331Y-147294637D01*
X207108044Y-147294364D01*
X206818500Y-147414001D01*
X206596779Y-147635335D01*
X206476637Y-147924669D01*
X206476364Y-148237956D01*
X205427550Y-148237956D01*
X205645221Y-148020665D01*
X205765363Y-147731331D01*
X205765636Y-147418044D01*
X205645999Y-147128500D01*
X205424665Y-146906779D01*
X205135331Y-146786637D01*
X204822044Y-146786364D01*
X204532500Y-146906001D01*
X204310779Y-147127335D01*
X204190637Y-147416669D01*
X204190364Y-147729956D01*
X190695550Y-147729956D01*
X190913221Y-147512665D01*
X191033363Y-147223331D01*
X191033636Y-146910044D01*
X190913999Y-146620500D01*
X190851609Y-146558000D01*
X218906632Y-146558000D01*
X219003313Y-147044046D01*
X219278636Y-147456096D01*
X219690686Y-147731419D01*
X220176229Y-147828000D01*
X219690686Y-147924581D01*
X219278636Y-148199904D01*
X219003313Y-148611954D01*
X218906632Y-149098000D01*
X219003313Y-149584046D01*
X219278636Y-149996096D01*
X219690686Y-150271419D01*
X220135694Y-150359937D01*
X219341000Y-150359937D01*
X219190360Y-150388282D01*
X219052007Y-150477310D01*
X218959191Y-150613151D01*
X218926537Y-150774400D01*
X218926537Y-152501600D01*
X218954882Y-152652240D01*
X219043910Y-152790593D01*
X219179751Y-152883409D01*
X219341000Y-152916063D01*
X221373000Y-152916063D01*
X221523640Y-152887718D01*
X221661993Y-152798690D01*
X221754809Y-152662849D01*
X221787463Y-152501600D01*
X221787463Y-150774400D01*
X221759118Y-150623760D01*
X221670090Y-150485407D01*
X221534249Y-150392591D01*
X221373000Y-150359937D01*
X220578306Y-150359937D01*
X221023314Y-150271419D01*
X221435364Y-149996096D01*
X221710687Y-149584046D01*
X221807368Y-149098000D01*
X221710687Y-148611954D01*
X221435364Y-148199904D01*
X221023314Y-147924581D01*
X220537771Y-147828000D01*
X221023314Y-147731419D01*
X221435364Y-147456096D01*
X221710687Y-147044046D01*
X221807368Y-146558000D01*
X221710687Y-146071954D01*
X221435364Y-145659904D01*
X221023314Y-145384581D01*
X220537268Y-145287900D01*
X220176732Y-145287900D01*
X219690686Y-145384581D01*
X219278636Y-145659904D01*
X219003313Y-146071954D01*
X218906632Y-146558000D01*
X190851609Y-146558000D01*
X190692665Y-146398779D01*
X190403331Y-146278637D01*
X190090044Y-146278364D01*
X189800500Y-146398001D01*
X189578779Y-146619335D01*
X189458637Y-146908669D01*
X189458364Y-147221956D01*
X172668500Y-147221956D01*
X172668500Y-145189956D01*
X203174364Y-145189956D01*
X203294001Y-145479500D01*
X203515335Y-145701221D01*
X203804669Y-145821363D01*
X204117956Y-145821636D01*
X204407500Y-145701999D01*
X204469915Y-145639693D01*
X204531335Y-145701221D01*
X204820669Y-145821363D01*
X205133956Y-145821636D01*
X205423500Y-145701999D01*
X205485915Y-145639693D01*
X205547335Y-145701221D01*
X205836669Y-145821363D01*
X206149956Y-145821636D01*
X206439500Y-145701999D01*
X206501915Y-145639693D01*
X206563335Y-145701221D01*
X206852669Y-145821363D01*
X207165956Y-145821636D01*
X207455500Y-145701999D01*
X207677221Y-145480665D01*
X207797363Y-145191331D01*
X207797636Y-144878044D01*
X207677999Y-144588500D01*
X207456665Y-144366779D01*
X207167331Y-144246637D01*
X206854044Y-144246364D01*
X206564500Y-144366001D01*
X206502085Y-144428307D01*
X206440665Y-144366779D01*
X206151331Y-144246637D01*
X205838044Y-144246364D01*
X205548500Y-144366001D01*
X205486085Y-144428307D01*
X205424665Y-144366779D01*
X205135331Y-144246637D01*
X204822044Y-144246364D01*
X204532500Y-144366001D01*
X204470085Y-144428307D01*
X204408665Y-144366779D01*
X204119331Y-144246637D01*
X203806044Y-144246364D01*
X203516500Y-144366001D01*
X203294779Y-144587335D01*
X203174637Y-144876669D01*
X203174364Y-145189956D01*
X172668500Y-145189956D01*
X172668500Y-142649956D01*
X188442364Y-142649956D01*
X188562001Y-142939500D01*
X188783335Y-143161221D01*
X189072669Y-143281363D01*
X189385956Y-143281636D01*
X189675500Y-143161999D01*
X189679550Y-143157956D01*
X193522364Y-143157956D01*
X193642001Y-143447500D01*
X193863335Y-143669221D01*
X194152669Y-143789363D01*
X194465956Y-143789636D01*
X194755500Y-143669999D01*
X194977221Y-143448665D01*
X195097363Y-143159331D01*
X195097364Y-143157956D01*
X200380364Y-143157956D01*
X200500001Y-143447500D01*
X200721335Y-143669221D01*
X201010669Y-143789363D01*
X201323956Y-143789636D01*
X201613500Y-143669999D01*
X201835221Y-143448665D01*
X201955363Y-143159331D01*
X201955636Y-142846044D01*
X201835999Y-142556500D01*
X201614665Y-142334779D01*
X201325331Y-142214637D01*
X201012044Y-142214364D01*
X200722500Y-142334001D01*
X200500779Y-142555335D01*
X200380637Y-142844669D01*
X200380364Y-143157956D01*
X195097364Y-143157956D01*
X195097636Y-142846044D01*
X194977999Y-142556500D01*
X194756665Y-142334779D01*
X194467331Y-142214637D01*
X194154044Y-142214364D01*
X193864500Y-142334001D01*
X193642779Y-142555335D01*
X193522637Y-142844669D01*
X193522364Y-143157956D01*
X189679550Y-143157956D01*
X189897221Y-142940665D01*
X190017363Y-142651331D01*
X190017636Y-142338044D01*
X189897999Y-142048500D01*
X189676665Y-141826779D01*
X189387331Y-141706637D01*
X189074044Y-141706364D01*
X188784500Y-141826001D01*
X188562779Y-142047335D01*
X188442637Y-142336669D01*
X188442364Y-142649956D01*
X172668500Y-142649956D01*
X172668500Y-140871956D01*
X209778364Y-140871956D01*
X209898001Y-141161500D01*
X210119335Y-141383221D01*
X210408669Y-141503363D01*
X210721956Y-141503636D01*
X211011500Y-141383999D01*
X211032535Y-141363000D01*
X219942537Y-141363000D01*
X219942537Y-142863000D01*
X219970882Y-143013640D01*
X220059910Y-143151993D01*
X220195751Y-143244809D01*
X220357000Y-143277463D01*
X221857000Y-143277463D01*
X222007640Y-143249118D01*
X222145993Y-143160090D01*
X222238809Y-143024249D01*
X222271463Y-142863000D01*
X222271463Y-141363000D01*
X222243118Y-141212360D01*
X222154090Y-141074007D01*
X222018249Y-140981191D01*
X221857000Y-140948537D01*
X220357000Y-140948537D01*
X220206360Y-140976882D01*
X220068007Y-141065910D01*
X219975191Y-141201751D01*
X219942537Y-141363000D01*
X211032535Y-141363000D01*
X211233221Y-141162665D01*
X211353363Y-140873331D01*
X211353636Y-140560044D01*
X211301005Y-140432665D01*
X220457346Y-140432665D01*
X220539566Y-140606649D01*
X220978320Y-140745115D01*
X221436664Y-140705137D01*
X221674434Y-140606649D01*
X221756654Y-140432665D01*
X221107000Y-139783011D01*
X220457346Y-140432665D01*
X211301005Y-140432665D01*
X211233999Y-140270500D01*
X211012665Y-140048779D01*
X210723331Y-139928637D01*
X210410044Y-139928364D01*
X210120500Y-140048001D01*
X209898779Y-140269335D01*
X209778637Y-140558669D01*
X209778364Y-140871956D01*
X172668500Y-140871956D01*
X172668500Y-138839956D01*
X208254364Y-138839956D01*
X208374001Y-139129500D01*
X208595335Y-139351221D01*
X208884669Y-139471363D01*
X209197956Y-139471636D01*
X209487500Y-139351999D01*
X209709221Y-139130665D01*
X209731107Y-139077956D01*
X214096364Y-139077956D01*
X214216001Y-139367500D01*
X214437335Y-139589221D01*
X214726669Y-139709363D01*
X215039956Y-139709636D01*
X215329500Y-139589999D01*
X215475433Y-139444320D01*
X219934885Y-139444320D01*
X219974863Y-139902664D01*
X220073351Y-140140434D01*
X220247335Y-140222654D01*
X220896989Y-139573000D01*
X221317011Y-139573000D01*
X221966665Y-140222654D01*
X222140649Y-140140434D01*
X222279115Y-139701680D01*
X222239137Y-139243336D01*
X222140649Y-139005566D01*
X221966665Y-138923346D01*
X221317011Y-139573000D01*
X220896989Y-139573000D01*
X220247335Y-138923346D01*
X220073351Y-139005566D01*
X219934885Y-139444320D01*
X215475433Y-139444320D01*
X215551221Y-139368665D01*
X215671363Y-139079331D01*
X215671636Y-138766044D01*
X215649858Y-138713335D01*
X220457346Y-138713335D01*
X221107000Y-139362989D01*
X221756654Y-138713335D01*
X221674434Y-138539351D01*
X221235680Y-138400885D01*
X220777336Y-138440863D01*
X220539566Y-138539351D01*
X220457346Y-138713335D01*
X215649858Y-138713335D01*
X215551999Y-138476500D01*
X215330665Y-138254779D01*
X215041331Y-138134637D01*
X214728044Y-138134364D01*
X214438500Y-138254001D01*
X214216779Y-138475335D01*
X214096637Y-138764669D01*
X214096364Y-139077956D01*
X209731107Y-139077956D01*
X209829363Y-138841331D01*
X209829636Y-138528044D01*
X209709999Y-138238500D01*
X209488665Y-138016779D01*
X209199331Y-137896637D01*
X208886044Y-137896364D01*
X208596500Y-138016001D01*
X208374779Y-138237335D01*
X208254637Y-138526669D01*
X208254364Y-138839956D01*
X172668500Y-138839956D01*
X172668500Y-138042639D01*
X173273075Y-137922382D01*
X173437634Y-137854220D01*
X174261669Y-137303617D01*
X174387617Y-137177669D01*
X174938220Y-136353634D01*
X175006383Y-136189075D01*
X175006383Y-136189070D01*
X175126639Y-135584500D01*
X179187609Y-135584500D01*
X178710954Y-135679313D01*
X178298904Y-135954636D01*
X178023581Y-136366686D01*
X177935063Y-136811694D01*
X177935063Y-136017000D01*
X177906718Y-135866360D01*
X177817690Y-135728007D01*
X177681849Y-135635191D01*
X177520600Y-135602537D01*
X175793400Y-135602537D01*
X175642760Y-135630882D01*
X175504407Y-135719910D01*
X175411591Y-135855751D01*
X175378937Y-136017000D01*
X175378937Y-138049000D01*
X175407282Y-138199640D01*
X175496310Y-138337993D01*
X175632151Y-138430809D01*
X175793400Y-138463463D01*
X177520600Y-138463463D01*
X177671240Y-138435118D01*
X177809593Y-138346090D01*
X177902409Y-138210249D01*
X177935063Y-138049000D01*
X177935063Y-137254306D01*
X178023581Y-137699314D01*
X178298904Y-138111364D01*
X178710954Y-138386687D01*
X179197000Y-138483368D01*
X179683046Y-138386687D01*
X180095096Y-138111364D01*
X180370419Y-137699314D01*
X180467100Y-137213268D01*
X180467100Y-137186903D01*
X180563772Y-137671908D01*
X180839257Y-138083850D01*
X181251416Y-138359011D01*
X181537819Y-138439785D01*
X181736500Y-138353875D01*
X181736500Y-137033500D01*
X181716500Y-137033500D01*
X181716500Y-137032500D01*
X181736500Y-137032500D01*
X181736500Y-135712125D01*
X181537819Y-135626215D01*
X181251416Y-135706989D01*
X180839257Y-135982150D01*
X180563772Y-136394092D01*
X180467100Y-136879097D01*
X180467100Y-136852732D01*
X180370419Y-136366686D01*
X180095096Y-135954636D01*
X179683046Y-135679313D01*
X179206391Y-135584500D01*
X184267609Y-135584500D01*
X183790954Y-135679313D01*
X183378904Y-135954636D01*
X183103581Y-136366686D01*
X183006900Y-136852732D01*
X183006900Y-136879097D01*
X182910228Y-136394092D01*
X182634743Y-135982150D01*
X182222584Y-135706989D01*
X181936181Y-135626215D01*
X181737500Y-135712125D01*
X181737500Y-137032500D01*
X181757500Y-137032500D01*
X181757500Y-137033500D01*
X181737500Y-137033500D01*
X181737500Y-138353875D01*
X181936181Y-138439785D01*
X182222584Y-138359011D01*
X182634743Y-138083850D01*
X182910228Y-137671908D01*
X183006900Y-137186903D01*
X183006900Y-137213268D01*
X183103581Y-137699314D01*
X183378904Y-138111364D01*
X183790954Y-138386687D01*
X184277000Y-138483368D01*
X184763046Y-138386687D01*
X185175096Y-138111364D01*
X185450419Y-137699314D01*
X185547100Y-137213268D01*
X185547100Y-136852732D01*
X185450419Y-136366686D01*
X185197166Y-135987665D01*
X195692346Y-135987665D01*
X195774566Y-136161649D01*
X196213320Y-136300115D01*
X196671664Y-136260137D01*
X196909434Y-136161649D01*
X196991654Y-135987665D01*
X196342000Y-135338011D01*
X195692346Y-135987665D01*
X185197166Y-135987665D01*
X185175096Y-135954636D01*
X184763046Y-135679313D01*
X184286391Y-135584500D01*
X194437000Y-135584500D01*
X194481100Y-135575728D01*
X194526059Y-135575728D01*
X194567597Y-135558523D01*
X194611695Y-135549751D01*
X194649078Y-135524772D01*
X194690618Y-135507566D01*
X194722412Y-135475772D01*
X194759794Y-135450794D01*
X194784772Y-135413412D01*
X194816566Y-135381618D01*
X194833772Y-135340078D01*
X194858751Y-135302695D01*
X194867523Y-135258597D01*
X194879575Y-135229500D01*
X195189962Y-135229500D01*
X195209863Y-135457664D01*
X195209863Y-135457664D01*
G37*
X195209863Y-135457664D02*
X195308351Y-135695434D01*
X195482335Y-135777654D01*
X196030489Y-135229500D01*
X196653511Y-135229500D01*
X197201665Y-135777654D01*
X197375649Y-135695434D01*
X197514115Y-135256680D01*
X197511744Y-135229500D01*
X197717537Y-135229500D01*
X197717537Y-135878000D01*
X197745882Y-136028640D01*
X197834910Y-136166993D01*
X197970751Y-136259809D01*
X198132000Y-136292463D01*
X199632000Y-136292463D01*
X199782640Y-136264118D01*
X199920993Y-136175090D01*
X200013809Y-136039249D01*
X200046463Y-135878000D01*
X200046463Y-135229500D01*
X200344425Y-135229500D01*
X200356478Y-135258598D01*
X200365249Y-135302695D01*
X200390228Y-135340079D01*
X200407434Y-135381617D01*
X200439226Y-135413409D01*
X200464206Y-135450794D01*
X200501591Y-135475774D01*
X200533382Y-135507565D01*
X200574919Y-135524770D01*
X200612305Y-135549751D01*
X200656405Y-135558523D01*
X200697941Y-135575728D01*
X200742900Y-135575728D01*
X200787000Y-135584500D01*
X220097361Y-135584500D01*
X220217618Y-136189075D01*
X220285780Y-136353634D01*
X220836383Y-137177669D01*
X220962331Y-137303617D01*
X221786366Y-137854220D01*
X221950925Y-137922383D01*
X221950930Y-137922383D01*
X222555500Y-138042639D01*
X222555500Y-153721500D01*
X212969682Y-153721500D01*
X213043500Y-153690999D01*
X213265221Y-153469665D01*
X213385363Y-153180331D01*
X213385636Y-152867044D01*
X213265999Y-152577500D01*
X213044665Y-152355779D01*
X212755331Y-152235637D01*
X212442044Y-152235364D01*
X212152500Y-152355001D01*
X211930779Y-152576335D01*
X211810637Y-152865669D01*
X211810364Y-153178956D01*
X211930001Y-153468500D01*
X212151335Y-153690221D01*
X212226663Y-153721500D01*
X201707244Y-153721500D01*
X201751739Y-153691805D01*
X201948405Y-153397824D01*
X202017600Y-153050960D01*
X202017600Y-152775960D01*
X201111600Y-152775960D01*
X201111600Y-152795960D01*
X201110600Y-152795960D01*
X201110600Y-152775960D01*
X200204600Y-152775960D01*
X200204600Y-153050960D01*
X200273795Y-153397824D01*
X200470461Y-153691805D01*
X200514956Y-153721500D01*
X194707244Y-153721500D01*
X194751739Y-153691805D01*
X194948405Y-153397824D01*
X195017600Y-153050960D01*
X195017600Y-152775960D01*
X194111600Y-152775960D01*
X194111600Y-152795960D01*
X194110600Y-152795960D01*
X194110600Y-152775960D01*
X193204600Y-152775960D01*
X193204600Y-153050960D01*
X193273795Y-153397824D01*
X193470461Y-153691805D01*
X193514956Y-153721500D01*
X172668500Y-153721500D01*
X172668500Y-152499960D01*
X193204600Y-152499960D01*
X193204600Y-152774960D01*
X194110600Y-152774960D01*
X194110600Y-151695585D01*
X194111600Y-151695585D01*
X194111600Y-152774960D01*
X195017600Y-152774960D01*
X195017600Y-152499960D01*
X200204600Y-152499960D01*
X200204600Y-152774960D01*
X201110600Y-152774960D01*
X201110600Y-151695585D01*
X201111600Y-151695585D01*
X201111600Y-152774960D01*
X202017600Y-152774960D01*
X202017600Y-152499960D01*
X201948405Y-152153096D01*
X201751739Y-151859115D01*
X201457541Y-151662773D01*
X201253402Y-151605199D01*
X201111600Y-151695585D01*
X201110600Y-151695585D01*
X200968798Y-151605199D01*
X200764659Y-151662773D01*
X200470461Y-151859115D01*
X200273795Y-152153096D01*
X200204600Y-152499960D01*
X195017600Y-152499960D01*
X194948405Y-152153096D01*
X194751739Y-151859115D01*
X194457541Y-151662773D01*
X194253402Y-151605199D01*
X194111600Y-151695585D01*
X194110600Y-151695585D01*
X193968798Y-151605199D01*
X193764659Y-151662773D01*
X193470461Y-151859115D01*
X193273795Y-152153096D01*
X193204600Y-152499960D01*
X172668500Y-152499960D01*
X172668500Y-150213851D01*
X194090531Y-150213851D01*
X194146509Y-150412334D01*
X194337432Y-150698421D01*
X194623303Y-150889668D01*
X194960600Y-150956960D01*
X195110600Y-150956960D01*
X195110600Y-150075960D01*
X195111600Y-150075960D01*
X195111600Y-150956960D01*
X195261600Y-150956960D01*
X195598897Y-150889668D01*
X195884768Y-150698421D01*
X196075691Y-150412334D01*
X196131669Y-150213851D01*
X199090531Y-150213851D01*
X199146509Y-150412334D01*
X199337432Y-150698421D01*
X199623303Y-150889668D01*
X199960600Y-150956960D01*
X200110600Y-150956960D01*
X200110600Y-150075960D01*
X200111600Y-150075960D01*
X200111600Y-150956960D01*
X200261600Y-150956960D01*
X200598897Y-150889668D01*
X200884768Y-150698421D01*
X201075691Y-150412334D01*
X201131669Y-150213851D01*
X201040975Y-150075960D01*
X200111600Y-150075960D01*
X200110600Y-150075960D01*
X199181225Y-150075960D01*
X199090531Y-150213851D01*
X196131669Y-150213851D01*
X196040975Y-150075960D01*
X195111600Y-150075960D01*
X195110600Y-150075960D01*
X194181225Y-150075960D01*
X194090531Y-150213851D01*
X172668500Y-150213851D01*
X172668500Y-149937069D01*
X194090531Y-149937069D01*
X194181225Y-150074960D01*
X195110600Y-150074960D01*
X195110600Y-149193960D01*
X195111600Y-149193960D01*
X195111600Y-150074960D01*
X196040975Y-150074960D01*
X196131669Y-149937069D01*
X199090531Y-149937069D01*
X199181225Y-150074960D01*
X200110600Y-150074960D01*
X200110600Y-149193960D01*
X200111600Y-149193960D01*
X200111600Y-150074960D01*
X201040975Y-150074960D01*
X201131669Y-149937069D01*
X201075691Y-149738586D01*
X200884768Y-149452499D01*
X200598897Y-149261252D01*
X200261600Y-149193960D01*
X200111600Y-149193960D01*
X200110600Y-149193960D01*
X199960600Y-149193960D01*
X199623303Y-149261252D01*
X199337432Y-149452499D01*
X199146509Y-149738586D01*
X199090531Y-149937069D01*
X196131669Y-149937069D01*
X196075691Y-149738586D01*
X195884768Y-149452499D01*
X195598897Y-149261252D01*
X195261600Y-149193960D01*
X195111600Y-149193960D01*
X195110600Y-149193960D01*
X194960600Y-149193960D01*
X194623303Y-149261252D01*
X194337432Y-149452499D01*
X194146509Y-149738586D01*
X194090531Y-149937069D01*
X172668500Y-149937069D01*
X172668500Y-147221956D01*
X189458364Y-147221956D01*
X189578001Y-147511500D01*
X189799335Y-147733221D01*
X190088669Y-147853363D01*
X190401956Y-147853636D01*
X190691500Y-147733999D01*
X190695550Y-147729956D01*
X204190364Y-147729956D01*
X204310001Y-148019500D01*
X204531335Y-148241221D01*
X204820669Y-148361363D01*
X205133956Y-148361636D01*
X205423500Y-148241999D01*
X205427550Y-148237956D01*
X206476364Y-148237956D01*
X206596001Y-148527500D01*
X206817335Y-148749221D01*
X207106669Y-148869363D01*
X207419956Y-148869636D01*
X207709500Y-148749999D01*
X207931221Y-148528665D01*
X208051363Y-148239331D01*
X208051636Y-147926044D01*
X207931999Y-147636500D01*
X207710665Y-147414779D01*
X207421331Y-147294637D01*
X207108044Y-147294364D01*
X206818500Y-147414001D01*
X206596779Y-147635335D01*
X206476637Y-147924669D01*
X206476364Y-148237956D01*
X205427550Y-148237956D01*
X205645221Y-148020665D01*
X205765363Y-147731331D01*
X205765636Y-147418044D01*
X205645999Y-147128500D01*
X205424665Y-146906779D01*
X205135331Y-146786637D01*
X204822044Y-146786364D01*
X204532500Y-146906001D01*
X204310779Y-147127335D01*
X204190637Y-147416669D01*
X204190364Y-147729956D01*
X190695550Y-147729956D01*
X190913221Y-147512665D01*
X191033363Y-147223331D01*
X191033636Y-146910044D01*
X190913999Y-146620500D01*
X190851609Y-146558000D01*
X218906632Y-146558000D01*
X219003313Y-147044046D01*
X219278636Y-147456096D01*
X219690686Y-147731419D01*
X220176229Y-147828000D01*
X219690686Y-147924581D01*
X219278636Y-148199904D01*
X219003313Y-148611954D01*
X218906632Y-149098000D01*
X219003313Y-149584046D01*
X219278636Y-149996096D01*
X219690686Y-150271419D01*
X220135694Y-150359937D01*
X219341000Y-150359937D01*
X219190360Y-150388282D01*
X219052007Y-150477310D01*
X218959191Y-150613151D01*
X218926537Y-150774400D01*
X218926537Y-152501600D01*
X218954882Y-152652240D01*
X219043910Y-152790593D01*
X219179751Y-152883409D01*
X219341000Y-152916063D01*
X221373000Y-152916063D01*
X221523640Y-152887718D01*
X221661993Y-152798690D01*
X221754809Y-152662849D01*
X221787463Y-152501600D01*
X221787463Y-150774400D01*
X221759118Y-150623760D01*
X221670090Y-150485407D01*
X221534249Y-150392591D01*
X221373000Y-150359937D01*
X220578306Y-150359937D01*
X221023314Y-150271419D01*
X221435364Y-149996096D01*
X221710687Y-149584046D01*
X221807368Y-149098000D01*
X221710687Y-148611954D01*
X221435364Y-148199904D01*
X221023314Y-147924581D01*
X220537771Y-147828000D01*
X221023314Y-147731419D01*
X221435364Y-147456096D01*
X221710687Y-147044046D01*
X221807368Y-146558000D01*
X221710687Y-146071954D01*
X221435364Y-145659904D01*
X221023314Y-145384581D01*
X220537268Y-145287900D01*
X220176732Y-145287900D01*
X219690686Y-145384581D01*
X219278636Y-145659904D01*
X219003313Y-146071954D01*
X218906632Y-146558000D01*
X190851609Y-146558000D01*
X190692665Y-146398779D01*
X190403331Y-146278637D01*
X190090044Y-146278364D01*
X189800500Y-146398001D01*
X189578779Y-146619335D01*
X189458637Y-146908669D01*
X189458364Y-147221956D01*
X172668500Y-147221956D01*
X172668500Y-145189956D01*
X203174364Y-145189956D01*
X203294001Y-145479500D01*
X203515335Y-145701221D01*
X203804669Y-145821363D01*
X204117956Y-145821636D01*
X204407500Y-145701999D01*
X204469915Y-145639693D01*
X204531335Y-145701221D01*
X204820669Y-145821363D01*
X205133956Y-145821636D01*
X205423500Y-145701999D01*
X205485915Y-145639693D01*
X205547335Y-145701221D01*
X205836669Y-145821363D01*
X206149956Y-145821636D01*
X206439500Y-145701999D01*
X206501915Y-145639693D01*
X206563335Y-145701221D01*
X206852669Y-145821363D01*
X207165956Y-145821636D01*
X207455500Y-145701999D01*
X207677221Y-145480665D01*
X207797363Y-145191331D01*
X207797636Y-144878044D01*
X207677999Y-144588500D01*
X207456665Y-144366779D01*
X207167331Y-144246637D01*
X206854044Y-144246364D01*
X206564500Y-144366001D01*
X206502085Y-144428307D01*
X206440665Y-144366779D01*
X206151331Y-144246637D01*
X205838044Y-144246364D01*
X205548500Y-144366001D01*
X205486085Y-144428307D01*
X205424665Y-144366779D01*
X205135331Y-144246637D01*
X204822044Y-144246364D01*
X204532500Y-144366001D01*
X204470085Y-144428307D01*
X204408665Y-144366779D01*
X204119331Y-144246637D01*
X203806044Y-144246364D01*
X203516500Y-144366001D01*
X203294779Y-144587335D01*
X203174637Y-144876669D01*
X203174364Y-145189956D01*
X172668500Y-145189956D01*
X172668500Y-142649956D01*
X188442364Y-142649956D01*
X188562001Y-142939500D01*
X188783335Y-143161221D01*
X189072669Y-143281363D01*
X189385956Y-143281636D01*
X189675500Y-143161999D01*
X189679550Y-143157956D01*
X193522364Y-143157956D01*
X193642001Y-143447500D01*
X193863335Y-143669221D01*
X194152669Y-143789363D01*
X194465956Y-143789636D01*
X194755500Y-143669999D01*
X194977221Y-143448665D01*
X195097363Y-143159331D01*
X195097364Y-143157956D01*
X200380364Y-143157956D01*
X200500001Y-143447500D01*
X200721335Y-143669221D01*
X201010669Y-143789363D01*
X201323956Y-143789636D01*
X201613500Y-143669999D01*
X201835221Y-143448665D01*
X201955363Y-143159331D01*
X201955636Y-142846044D01*
X201835999Y-142556500D01*
X201614665Y-142334779D01*
X201325331Y-142214637D01*
X201012044Y-142214364D01*
X200722500Y-142334001D01*
X200500779Y-142555335D01*
X200380637Y-142844669D01*
X200380364Y-143157956D01*
X195097364Y-143157956D01*
X195097636Y-142846044D01*
X194977999Y-142556500D01*
X194756665Y-142334779D01*
X194467331Y-142214637D01*
X194154044Y-142214364D01*
X193864500Y-142334001D01*
X193642779Y-142555335D01*
X193522637Y-142844669D01*
X193522364Y-143157956D01*
X189679550Y-143157956D01*
X189897221Y-142940665D01*
X190017363Y-142651331D01*
X190017636Y-142338044D01*
X189897999Y-142048500D01*
X189676665Y-141826779D01*
X189387331Y-141706637D01*
X189074044Y-141706364D01*
X188784500Y-141826001D01*
X188562779Y-142047335D01*
X188442637Y-142336669D01*
X188442364Y-142649956D01*
X172668500Y-142649956D01*
X172668500Y-140871956D01*
X209778364Y-140871956D01*
X209898001Y-141161500D01*
X210119335Y-141383221D01*
X210408669Y-141503363D01*
X210721956Y-141503636D01*
X211011500Y-141383999D01*
X211032535Y-141363000D01*
X219942537Y-141363000D01*
X219942537Y-142863000D01*
X219970882Y-143013640D01*
X220059910Y-143151993D01*
X220195751Y-143244809D01*
X220357000Y-143277463D01*
X221857000Y-143277463D01*
X222007640Y-143249118D01*
X222145993Y-143160090D01*
X222238809Y-143024249D01*
X222271463Y-142863000D01*
X222271463Y-141363000D01*
X222243118Y-141212360D01*
X222154090Y-141074007D01*
X222018249Y-140981191D01*
X221857000Y-140948537D01*
X220357000Y-140948537D01*
X220206360Y-140976882D01*
X220068007Y-141065910D01*
X219975191Y-141201751D01*
X219942537Y-141363000D01*
X211032535Y-141363000D01*
X211233221Y-141162665D01*
X211353363Y-140873331D01*
X211353636Y-140560044D01*
X211301005Y-140432665D01*
X220457346Y-140432665D01*
X220539566Y-140606649D01*
X220978320Y-140745115D01*
X221436664Y-140705137D01*
X221674434Y-140606649D01*
X221756654Y-140432665D01*
X221107000Y-139783011D01*
X220457346Y-140432665D01*
X211301005Y-140432665D01*
X211233999Y-140270500D01*
X211012665Y-140048779D01*
X210723331Y-139928637D01*
X210410044Y-139928364D01*
X210120500Y-140048001D01*
X209898779Y-140269335D01*
X209778637Y-140558669D01*
X209778364Y-140871956D01*
X172668500Y-140871956D01*
X172668500Y-138839956D01*
X208254364Y-138839956D01*
X208374001Y-139129500D01*
X208595335Y-139351221D01*
X208884669Y-139471363D01*
X209197956Y-139471636D01*
X209487500Y-139351999D01*
X209709221Y-139130665D01*
X209731107Y-139077956D01*
X214096364Y-139077956D01*
X214216001Y-139367500D01*
X214437335Y-139589221D01*
X214726669Y-139709363D01*
X215039956Y-139709636D01*
X215329500Y-139589999D01*
X215475433Y-139444320D01*
X219934885Y-139444320D01*
X219974863Y-139902664D01*
X220073351Y-140140434D01*
X220247335Y-140222654D01*
X220896989Y-139573000D01*
X221317011Y-139573000D01*
X221966665Y-140222654D01*
X222140649Y-140140434D01*
X222279115Y-139701680D01*
X222239137Y-139243336D01*
X222140649Y-139005566D01*
X221966665Y-138923346D01*
X221317011Y-139573000D01*
X220896989Y-139573000D01*
X220247335Y-138923346D01*
X220073351Y-139005566D01*
X219934885Y-139444320D01*
X215475433Y-139444320D01*
X215551221Y-139368665D01*
X215671363Y-139079331D01*
X215671636Y-138766044D01*
X215649858Y-138713335D01*
X220457346Y-138713335D01*
X221107000Y-139362989D01*
X221756654Y-138713335D01*
X221674434Y-138539351D01*
X221235680Y-138400885D01*
X220777336Y-138440863D01*
X220539566Y-138539351D01*
X220457346Y-138713335D01*
X215649858Y-138713335D01*
X215551999Y-138476500D01*
X215330665Y-138254779D01*
X215041331Y-138134637D01*
X214728044Y-138134364D01*
X214438500Y-138254001D01*
X214216779Y-138475335D01*
X214096637Y-138764669D01*
X214096364Y-139077956D01*
X209731107Y-139077956D01*
X209829363Y-138841331D01*
X209829636Y-138528044D01*
X209709999Y-138238500D01*
X209488665Y-138016779D01*
X209199331Y-137896637D01*
X208886044Y-137896364D01*
X208596500Y-138016001D01*
X208374779Y-138237335D01*
X208254637Y-138526669D01*
X208254364Y-138839956D01*
X172668500Y-138839956D01*
X172668500Y-138042639D01*
X173273075Y-137922382D01*
X173437634Y-137854220D01*
X174261669Y-137303617D01*
X174387617Y-137177669D01*
X174938220Y-136353634D01*
X175006383Y-136189075D01*
X175006383Y-136189070D01*
X175126639Y-135584500D01*
X179187609Y-135584500D01*
X178710954Y-135679313D01*
X178298904Y-135954636D01*
X178023581Y-136366686D01*
X177935063Y-136811694D01*
X177935063Y-136017000D01*
X177906718Y-135866360D01*
X177817690Y-135728007D01*
X177681849Y-135635191D01*
X177520600Y-135602537D01*
X175793400Y-135602537D01*
X175642760Y-135630882D01*
X175504407Y-135719910D01*
X175411591Y-135855751D01*
X175378937Y-136017000D01*
X175378937Y-138049000D01*
X175407282Y-138199640D01*
X175496310Y-138337993D01*
X175632151Y-138430809D01*
X175793400Y-138463463D01*
X177520600Y-138463463D01*
X177671240Y-138435118D01*
X177809593Y-138346090D01*
X177902409Y-138210249D01*
X177935063Y-138049000D01*
X177935063Y-137254306D01*
X178023581Y-137699314D01*
X178298904Y-138111364D01*
X178710954Y-138386687D01*
X179197000Y-138483368D01*
X179683046Y-138386687D01*
X180095096Y-138111364D01*
X180370419Y-137699314D01*
X180467100Y-137213268D01*
X180467100Y-137186903D01*
X180563772Y-137671908D01*
X180839257Y-138083850D01*
X181251416Y-138359011D01*
X181537819Y-138439785D01*
X181736500Y-138353875D01*
X181736500Y-137033500D01*
X181716500Y-137033500D01*
X181716500Y-137032500D01*
X181736500Y-137032500D01*
X181736500Y-135712125D01*
X181537819Y-135626215D01*
X181251416Y-135706989D01*
X180839257Y-135982150D01*
X180563772Y-136394092D01*
X180467100Y-136879097D01*
X180467100Y-136852732D01*
X180370419Y-136366686D01*
X180095096Y-135954636D01*
X179683046Y-135679313D01*
X179206391Y-135584500D01*
X184267609Y-135584500D01*
X183790954Y-135679313D01*
X183378904Y-135954636D01*
X183103581Y-136366686D01*
X183006900Y-136852732D01*
X183006900Y-136879097D01*
X182910228Y-136394092D01*
X182634743Y-135982150D01*
X182222584Y-135706989D01*
X181936181Y-135626215D01*
X181737500Y-135712125D01*
X181737500Y-137032500D01*
X181757500Y-137032500D01*
X181757500Y-137033500D01*
X181737500Y-137033500D01*
X181737500Y-138353875D01*
X181936181Y-138439785D01*
X182222584Y-138359011D01*
X182634743Y-138083850D01*
X182910228Y-137671908D01*
X183006900Y-137186903D01*
X183006900Y-137213268D01*
X183103581Y-137699314D01*
X183378904Y-138111364D01*
X183790954Y-138386687D01*
X184277000Y-138483368D01*
X184763046Y-138386687D01*
X185175096Y-138111364D01*
X185450419Y-137699314D01*
X185547100Y-137213268D01*
X185547100Y-136852732D01*
X185450419Y-136366686D01*
X185197166Y-135987665D01*
X195692346Y-135987665D01*
X195774566Y-136161649D01*
X196213320Y-136300115D01*
X196671664Y-136260137D01*
X196909434Y-136161649D01*
X196991654Y-135987665D01*
X196342000Y-135338011D01*
X195692346Y-135987665D01*
X185197166Y-135987665D01*
X185175096Y-135954636D01*
X184763046Y-135679313D01*
X184286391Y-135584500D01*
X194437000Y-135584500D01*
X194481100Y-135575728D01*
X194526059Y-135575728D01*
X194567597Y-135558523D01*
X194611695Y-135549751D01*
X194649078Y-135524772D01*
X194690618Y-135507566D01*
X194722412Y-135475772D01*
X194759794Y-135450794D01*
X194784772Y-135413412D01*
X194816566Y-135381618D01*
X194833772Y-135340078D01*
X194858751Y-135302695D01*
X194867523Y-135258597D01*
X194879575Y-135229500D01*
X195189962Y-135229500D01*
X195209863Y-135457664D01*
M02*
