G04 #@! TF.FileFunction,Soldermask,Bot*
%FSLAX46Y46*%
G04 Gerber Fmt 4.6, Leading zero omitted, Abs format (unit mm)*
G04 Created by KiCad (PCBNEW 4.0.2-stable) date Sun 10 Apr 2016 09:46:26 PM EDT*
%MOMM*%
G01*
G04 APERTURE LIST*
%ADD10C,0.150000*%
%ADD11R,1.727200X2.032000*%
%ADD12O,1.727200X2.032000*%
%ADD13R,1.500000X1.500000*%
%ADD14C,1.500000*%
%ADD15R,1.450000X0.450000*%
%ADD16R,2.032000X1.727200*%
%ADD17O,2.032000X1.727200*%
%ADD18R,0.600000X0.500000*%
%ADD19R,0.500000X0.600000*%
%ADD20O,1.250000X0.950000*%
%ADD21O,1.000000X1.550000*%
%ADD22R,0.800100X0.800100*%
%ADD23R,0.400000X0.600000*%
%ADD24R,0.600000X0.400000*%
%ADD25R,0.600000X0.700000*%
%ADD26R,0.700000X0.600000*%
G04 APERTURE END LIST*
D10*
D11*
X176657000Y-137033000D03*
D12*
X179197000Y-137033000D03*
X181737000Y-137033000D03*
X184277000Y-137033000D03*
D13*
X198882000Y-135128000D03*
D14*
X196342000Y-135128000D03*
D13*
X221107000Y-142113000D03*
D14*
X221107000Y-139573000D03*
D15*
X190598000Y-144444000D03*
X190598000Y-143794000D03*
X190598000Y-143144000D03*
X190598000Y-142494000D03*
X190598000Y-141844000D03*
X190598000Y-141194000D03*
X190598000Y-140544000D03*
X196498000Y-140544000D03*
X196498000Y-141194000D03*
X196498000Y-141844000D03*
X196498000Y-142494000D03*
X196498000Y-143144000D03*
X196498000Y-143794000D03*
X196498000Y-144444000D03*
D16*
X220357000Y-151638000D03*
D17*
X220357000Y-149098000D03*
X220357000Y-146558000D03*
D18*
X194606000Y-138938000D03*
X193506000Y-138938000D03*
D19*
X189230000Y-143468000D03*
X189230000Y-144568000D03*
D20*
X195111100Y-150075460D03*
X200111100Y-150075460D03*
D21*
X194111100Y-152775460D03*
X201111100Y-152775460D03*
D22*
X204150000Y-142986760D03*
X202250000Y-142986760D03*
X203200000Y-140987780D03*
X204200760Y-136972000D03*
X204200760Y-138872000D03*
X202201780Y-137922000D03*
X208010760Y-136972000D03*
X208010760Y-138872000D03*
X206011780Y-137922000D03*
D23*
X196538000Y-137160000D03*
X195638000Y-137160000D03*
X196654000Y-138684000D03*
X197554000Y-138684000D03*
D24*
X200660000Y-139388000D03*
X200660000Y-138488000D03*
X211836000Y-136456000D03*
X211836000Y-137356000D03*
D23*
X191066000Y-137160000D03*
X191966000Y-137160000D03*
X194506000Y-137414000D03*
X193606000Y-137414000D03*
X192728000Y-146050000D03*
X191828000Y-146050000D03*
D24*
X198374000Y-143198000D03*
X198374000Y-142298000D03*
D23*
X194368000Y-146050000D03*
X195268000Y-146050000D03*
D24*
X198374000Y-144330000D03*
X198374000Y-145230000D03*
D25*
X199074000Y-137160000D03*
X197674000Y-137160000D03*
X192216000Y-138684000D03*
X190816000Y-138684000D03*
D26*
X210312000Y-137606000D03*
X210312000Y-136206000D03*
M02*
