G04 #@! TF.FileFunction,Copper,L1,Top,Signal*
%FSLAX46Y46*%
G04 Gerber Fmt 4.6, Leading zero omitted, Abs format (unit mm)*
G04 Created by KiCad (PCBNEW 4.0.2-stable) date Sun 10 Apr 2016 09:46:26 PM EDT*
%MOMM*%
G01*
G04 APERTURE LIST*
%ADD10C,0.150000*%
%ADD11R,1.727200X2.032000*%
%ADD12O,1.727200X2.032000*%
%ADD13R,1.500000X1.500000*%
%ADD14C,1.500000*%
%ADD15R,1.000000X1.600000*%
%ADD16R,1.100000X0.700000*%
%ADD17R,1.400000X0.700000*%
%ADD18R,1.400000X1.000000*%
%ADD19R,1.200000X0.700000*%
%ADD20R,1.200000X1.200000*%
%ADD21R,0.800000X1.200000*%
%ADD22R,3.200000X1.200000*%
%ADD23R,1.900000X1.500000*%
%ADD24R,0.500000X0.500000*%
%ADD25R,0.450000X1.450000*%
%ADD26R,2.032000X1.727200*%
%ADD27O,2.032000X1.727200*%
%ADD28R,0.750000X0.800000*%
%ADD29R,0.600000X0.500000*%
%ADD30R,1.000000X1.250000*%
%ADD31R,0.797560X0.797560*%
%ADD32R,0.400000X1.350000*%
%ADD33O,1.250000X0.950000*%
%ADD34O,1.000000X1.550000*%
%ADD35R,0.800100X0.800100*%
%ADD36R,0.400000X0.600000*%
%ADD37R,0.600000X0.400000*%
%ADD38R,1.060000X0.650000*%
%ADD39C,0.762000*%
%ADD40C,0.305000*%
%ADD41C,0.203200*%
%ADD42C,0.500000*%
%ADD43C,1.000000*%
G04 APERTURE END LIST*
D10*
D11*
X176657000Y-137033000D03*
D12*
X179197000Y-137033000D03*
X181737000Y-137033000D03*
X184277000Y-137033000D03*
D13*
X198882000Y-135128000D03*
D14*
X196342000Y-135128000D03*
D13*
X221107000Y-142113000D03*
D14*
X221107000Y-139573000D03*
D15*
X208002000Y-136652000D03*
X205002000Y-136652000D03*
D16*
X195362000Y-142268000D03*
X199862000Y-142268000D03*
X195362000Y-145768000D03*
X199862000Y-145768000D03*
D17*
X188222000Y-143358000D03*
X188222000Y-144458000D03*
X188222000Y-145558000D03*
X188222000Y-146658000D03*
X188222000Y-147758000D03*
X188222000Y-148858000D03*
X188222000Y-149958000D03*
X188222000Y-151058000D03*
D18*
X188222000Y-141458000D03*
D19*
X188322000Y-152058000D03*
D20*
X184022000Y-152858000D03*
D21*
X177822000Y-152858000D03*
D22*
X174222000Y-152858000D03*
D23*
X173222000Y-139558000D03*
D24*
X172522000Y-140558000D03*
D25*
X209427000Y-143608000D03*
X208777000Y-143608000D03*
X208127000Y-143608000D03*
X207477000Y-143608000D03*
X206827000Y-143608000D03*
X206177000Y-143608000D03*
X205527000Y-143608000D03*
X204877000Y-143608000D03*
X204227000Y-143608000D03*
X203577000Y-143608000D03*
X203577000Y-149508000D03*
X204227000Y-149508000D03*
X204877000Y-149508000D03*
X205527000Y-149508000D03*
X206177000Y-149508000D03*
X206827000Y-149508000D03*
X207477000Y-149508000D03*
X208127000Y-149508000D03*
X208777000Y-149508000D03*
X209427000Y-149508000D03*
D26*
X220357000Y-151638000D03*
D27*
X220357000Y-149098000D03*
X220357000Y-146558000D03*
D28*
X217932000Y-151523000D03*
X217932000Y-153023000D03*
X211582000Y-153023000D03*
X211582000Y-151523000D03*
X215646000Y-142482000D03*
X215646000Y-140982000D03*
D29*
X189950000Y-146050000D03*
X191050000Y-146050000D03*
D30*
X213852000Y-139954000D03*
X211852000Y-139954000D03*
D29*
X206544000Y-151130000D03*
X205444000Y-151130000D03*
D30*
X213852000Y-141986000D03*
X211852000Y-141986000D03*
D29*
X213402000Y-143510000D03*
X212302000Y-143510000D03*
D31*
X215912700Y-149098000D03*
X217411300Y-149098000D03*
X191897000Y-150888700D03*
X191897000Y-152387300D03*
X218681300Y-136398000D03*
X217182700Y-136398000D03*
X194437000Y-139814300D03*
X194437000Y-138315700D03*
X197612000Y-139814300D03*
X197612000Y-138315700D03*
X200914000Y-139814300D03*
X200914000Y-138315700D03*
D32*
X196311100Y-150075460D03*
X196961100Y-150075460D03*
X197611100Y-150075460D03*
X198261100Y-150075460D03*
X198911100Y-150075460D03*
D33*
X195111100Y-150075460D03*
X200111100Y-150075460D03*
D34*
X194111100Y-152775460D03*
X201111100Y-152775460D03*
D35*
X213680000Y-137906760D03*
X215580000Y-137906760D03*
X214630000Y-135907780D03*
X210124000Y-137906760D03*
X212024000Y-137906760D03*
X211074000Y-135907780D03*
D36*
X214572000Y-149098000D03*
X213672000Y-149098000D03*
X192474000Y-149606000D03*
X191574000Y-149606000D03*
D37*
X218567000Y-138753000D03*
X218567000Y-137853000D03*
X195707000Y-139885000D03*
X195707000Y-140785000D03*
X198882000Y-139885000D03*
X198882000Y-140785000D03*
X202184000Y-139885000D03*
X202184000Y-140785000D03*
D36*
X216212000Y-147066000D03*
X217112000Y-147066000D03*
D37*
X202184000Y-146500000D03*
X202184000Y-145600000D03*
X210058000Y-140150000D03*
X210058000Y-139250000D03*
D38*
X215857000Y-153223000D03*
X215857000Y-152273000D03*
X215857000Y-151323000D03*
X213657000Y-151323000D03*
X213657000Y-153223000D03*
X217762000Y-145603000D03*
X217762000Y-144653000D03*
X217762000Y-143703000D03*
X215562000Y-143703000D03*
X215562000Y-145603000D03*
D39*
X210566000Y-140716000D03*
X214884000Y-138922000D03*
X203962000Y-145034000D03*
X204978000Y-147574000D03*
X209042000Y-138684000D03*
X204978000Y-145034000D03*
X205994000Y-145034000D03*
X206502000Y-136906000D03*
X198882000Y-138430000D03*
X196596000Y-146050000D03*
X193548000Y-141986000D03*
X191262000Y-146812000D03*
X188222000Y-138938000D03*
X211852000Y-138684000D03*
X206248000Y-148082000D03*
X218948000Y-144780000D03*
X215646000Y-139954000D03*
X198882000Y-151384000D03*
X192024000Y-153416000D03*
X218440000Y-149098000D03*
X211582000Y-150368000D03*
X218948000Y-153416000D03*
X189738000Y-148844000D03*
X194310000Y-143002000D03*
X190246000Y-147066000D03*
X189230000Y-142494000D03*
X207010000Y-145034000D03*
X201168000Y-143002000D03*
X212598000Y-153023000D03*
X207264000Y-148082000D03*
D40*
X196311100Y-150075460D02*
X196311100Y-151099100D01*
X214630000Y-144635000D02*
X215562000Y-143703000D01*
X214630000Y-147066000D02*
X214630000Y-144635000D01*
X213614000Y-148082000D02*
X214630000Y-147066000D01*
X212598000Y-148082000D02*
X213614000Y-148082000D01*
X207264000Y-153416000D02*
X212598000Y-148082000D01*
X203454000Y-153416000D02*
X207264000Y-153416000D01*
X201422000Y-151384000D02*
X203454000Y-153416000D01*
X200660000Y-151384000D02*
X201422000Y-151384000D01*
X199898000Y-152146000D02*
X200660000Y-151384000D01*
X197358000Y-152146000D02*
X199898000Y-152146000D01*
X196311100Y-151099100D02*
X197358000Y-152146000D01*
X215646000Y-142482000D02*
X215646000Y-143619000D01*
X215646000Y-143619000D02*
X215562000Y-143703000D01*
D41*
X196311100Y-150075460D02*
X196311100Y-149575100D01*
X196311100Y-149575100D02*
X195834000Y-149098000D01*
X195834000Y-149098000D02*
X192982000Y-149098000D01*
X192982000Y-149098000D02*
X192474000Y-149606000D01*
X210058000Y-140150000D02*
X210566000Y-140658000D01*
X210566000Y-140658000D02*
X210566000Y-140716000D01*
X210058000Y-140150000D02*
X210058000Y-140208000D01*
D40*
X213402000Y-143510000D02*
X213402000Y-142436000D01*
X213402000Y-142436000D02*
X213852000Y-141986000D01*
D42*
X213852000Y-139954000D02*
X214884000Y-138922000D01*
X214884000Y-138922000D02*
X215580000Y-138226000D01*
X215580000Y-138226000D02*
X215580000Y-137906760D01*
X213852000Y-141986000D02*
X213852000Y-139954000D01*
D41*
X215857000Y-151323000D02*
X215199000Y-151323000D01*
X215199000Y-153223000D02*
X215857000Y-153223000D01*
X214884000Y-152908000D02*
X215199000Y-153223000D01*
X214884000Y-151638000D02*
X214884000Y-152908000D01*
X215199000Y-151323000D02*
X214884000Y-151638000D01*
D42*
X217932000Y-151523000D02*
X217732000Y-151323000D01*
X217732000Y-151323000D02*
X215857000Y-151323000D01*
X220357000Y-149098000D02*
X217932000Y-151523000D01*
D41*
X202184000Y-145600000D02*
X202380000Y-145796000D01*
X202380000Y-145796000D02*
X208534000Y-145796000D01*
X209427000Y-144903000D02*
X209427000Y-143608000D01*
X208534000Y-145796000D02*
X209427000Y-144903000D01*
X199862000Y-145768000D02*
X200030000Y-145600000D01*
X200030000Y-145600000D02*
X202184000Y-145600000D01*
X204227000Y-143608000D02*
X204227000Y-144769000D01*
X204227000Y-144769000D02*
X203962000Y-145034000D01*
X205527000Y-148123000D02*
X204978000Y-147574000D01*
X205527000Y-149508000D02*
X205527000Y-148123000D01*
X209042000Y-138684000D02*
X210058000Y-138684000D01*
X210124000Y-137906760D02*
X210058000Y-137972760D01*
X210058000Y-137972760D02*
X210058000Y-138684000D01*
X210058000Y-138684000D02*
X210058000Y-139250000D01*
X213680000Y-137906760D02*
X212933240Y-137160000D01*
X210870760Y-137160000D02*
X210124000Y-137906760D01*
X212933240Y-137160000D02*
X210870760Y-137160000D01*
X204877000Y-144933000D02*
X204978000Y-145034000D01*
X204877000Y-143608000D02*
X204877000Y-144933000D01*
X205527000Y-143608000D02*
X205527000Y-144567000D01*
X205527000Y-144567000D02*
X205994000Y-145034000D01*
X195707000Y-140785000D02*
X196400000Y-141478000D01*
X206177000Y-142677000D02*
X206177000Y-143608000D01*
X205740000Y-142240000D02*
X206177000Y-142677000D01*
X201422000Y-142240000D02*
X205740000Y-142240000D01*
X200660000Y-141478000D02*
X201422000Y-142240000D01*
X196400000Y-141478000D02*
X200660000Y-141478000D01*
X188222000Y-144458000D02*
X203268000Y-144458000D01*
X203268000Y-144458000D02*
X203577000Y-144149000D01*
X203577000Y-144149000D02*
X203577000Y-143608000D01*
X204227000Y-149508000D02*
X204227000Y-150357000D01*
X189894000Y-149958000D02*
X188222000Y-149958000D01*
X191770000Y-148082000D02*
X189894000Y-149958000D01*
X201930000Y-148082000D02*
X191770000Y-148082000D01*
X202692000Y-148844000D02*
X201930000Y-148082000D01*
X202692000Y-150368000D02*
X202692000Y-148844000D01*
X202946000Y-150622000D02*
X202692000Y-150368000D01*
X203962000Y-150622000D02*
X202946000Y-150622000D01*
X204227000Y-150357000D02*
X203962000Y-150622000D01*
X194564000Y-147066000D02*
X203454000Y-147066000D01*
X188222000Y-145558000D02*
X189214000Y-145558000D01*
X203454000Y-147066000D02*
X204877000Y-148489000D01*
X204877000Y-148489000D02*
X204877000Y-149508000D01*
X192532000Y-145034000D02*
X194564000Y-147066000D01*
X189738000Y-145034000D02*
X192532000Y-145034000D01*
X189214000Y-145558000D02*
X189738000Y-145034000D01*
X188222000Y-147758000D02*
X191078000Y-147758000D01*
X202184000Y-147574000D02*
X203577000Y-148967000D01*
X191262000Y-147574000D02*
X202184000Y-147574000D01*
X191078000Y-147758000D02*
X191262000Y-147574000D01*
X203577000Y-148967000D02*
X203577000Y-149508000D01*
X203577000Y-148967000D02*
X203577000Y-149508000D01*
X202184000Y-140785000D02*
X207079000Y-140785000D01*
X208777000Y-142483000D02*
X208777000Y-143608000D01*
X207079000Y-140785000D02*
X208777000Y-142483000D01*
X207477000Y-149508000D02*
X207477000Y-151612260D01*
X201676000Y-149606000D02*
X201676000Y-150114000D01*
X196961100Y-148986900D02*
X196961100Y-150075460D01*
X197358000Y-148590000D02*
X196961100Y-148986900D01*
X200660000Y-148590000D02*
X197358000Y-148590000D01*
X200660000Y-148590000D02*
X201676000Y-149606000D01*
X203555598Y-151993598D02*
X201676000Y-150114000D01*
X207095662Y-151993598D02*
X203555598Y-151993598D01*
X207477000Y-151612260D02*
X207095662Y-151993598D01*
X201269598Y-150282338D02*
X203387260Y-152400000D01*
X201269598Y-149774338D02*
X201269598Y-150282338D01*
X197611100Y-150075460D02*
X197611100Y-148997302D01*
X197612000Y-148996402D02*
X200491662Y-148996402D01*
X197611100Y-148997302D02*
X197612000Y-148996402D01*
X200491662Y-148996402D02*
X201269598Y-149774338D01*
X208127000Y-151537000D02*
X208127000Y-149508000D01*
X207264000Y-152400000D02*
X208127000Y-151537000D01*
X203387260Y-152400000D02*
X207264000Y-152400000D01*
X198882000Y-140785000D02*
X200729000Y-140785000D01*
X208127000Y-142595000D02*
X208127000Y-143608000D01*
X207264000Y-141732000D02*
X208127000Y-142595000D01*
X201676000Y-141732000D02*
X207264000Y-141732000D01*
X200729000Y-140785000D02*
X201676000Y-141732000D01*
X200914000Y-138315700D02*
X198996300Y-138315700D01*
X198767700Y-138315700D02*
X198882000Y-138430000D01*
X198767700Y-138315700D02*
X197612000Y-138315700D01*
X198996300Y-138315700D02*
X198882000Y-138430000D01*
D40*
X191050000Y-146050000D02*
X191050000Y-146092000D01*
X191050000Y-146092000D02*
X191262000Y-146304000D01*
X191262000Y-146304000D02*
X191262000Y-146812000D01*
D41*
X205444000Y-151130000D02*
X205486000Y-151130000D01*
X205486000Y-151130000D02*
X206177000Y-150439000D01*
X206177000Y-150439000D02*
X206177000Y-149508000D01*
X188230000Y-141458000D02*
X188230000Y-139184000D01*
X188361700Y-139077700D02*
X188222000Y-138938000D01*
X194437000Y-138315700D02*
X197612000Y-138315700D01*
D40*
X212302000Y-143510000D02*
X212302000Y-142436000D01*
X212302000Y-142436000D02*
X211852000Y-141986000D01*
D42*
X211852000Y-139954000D02*
X211852000Y-141986000D01*
X212024000Y-137906760D02*
X211852000Y-138078760D01*
X211852000Y-138078760D02*
X211852000Y-138684000D01*
X211852000Y-138684000D02*
X211852000Y-139954000D01*
D41*
X202184000Y-146500000D02*
X205428000Y-146500000D01*
X206177000Y-148153000D02*
X206177000Y-149508000D01*
X206248000Y-148082000D02*
X206177000Y-148153000D01*
X206248000Y-147320000D02*
X206248000Y-148082000D01*
X205428000Y-146500000D02*
X206248000Y-147320000D01*
X217112000Y-147066000D02*
X217932000Y-147066000D01*
D40*
X218821000Y-144653000D02*
X218948000Y-144780000D01*
X218821000Y-144653000D02*
X217762000Y-144653000D01*
D41*
X218948000Y-146050000D02*
X218948000Y-144780000D01*
X217932000Y-147066000D02*
X218948000Y-146050000D01*
D40*
X215646000Y-140982000D02*
X215646000Y-139954000D01*
X217635000Y-144780000D02*
X217762000Y-144653000D01*
X198911100Y-150075460D02*
X198911100Y-151354900D01*
X198911100Y-151354900D02*
X198882000Y-151384000D01*
D41*
X191897000Y-152387300D02*
X191897000Y-153289000D01*
X191897000Y-153289000D02*
X192024000Y-153416000D01*
X217411300Y-149098000D02*
X218440000Y-149098000D01*
D42*
X211582000Y-151523000D02*
X211582000Y-150368000D01*
X215857000Y-152273000D02*
X217182000Y-152273000D01*
X217182000Y-152273000D02*
X217932000Y-153023000D01*
X217932000Y-153023000D02*
X218325000Y-153416000D01*
X218325000Y-153416000D02*
X218948000Y-153416000D01*
D40*
X188230000Y-141458000D02*
X188250000Y-141478000D01*
D41*
X173222000Y-139558000D02*
X175122000Y-141458000D01*
X175122000Y-141458000D02*
X188230000Y-141458000D01*
X184022000Y-149734000D02*
X180946000Y-149734000D01*
X180946000Y-149734000D02*
X177822000Y-152858000D01*
X188222000Y-148858000D02*
X184898000Y-148858000D01*
X184022000Y-149734000D02*
X184022000Y-152858000D01*
X184898000Y-148858000D02*
X184022000Y-149734000D01*
D40*
X188222000Y-148858000D02*
X189724000Y-148858000D01*
X189724000Y-148858000D02*
X189738000Y-148844000D01*
D41*
X174222000Y-152858000D02*
X177822000Y-152858000D01*
X187940000Y-141458000D02*
X188230000Y-141458000D01*
X172522000Y-140558000D02*
X172522000Y-140258000D01*
X172522000Y-140258000D02*
X173222000Y-139558000D01*
D40*
X188230000Y-141458000D02*
X188210000Y-141478000D01*
X188222000Y-148858000D02*
X188208000Y-148844000D01*
D41*
X195362000Y-142268000D02*
X195044000Y-142268000D01*
X195044000Y-142268000D02*
X194310000Y-143002000D01*
D40*
X189590000Y-146410000D02*
X190246000Y-147066000D01*
X188222000Y-146658000D02*
X189342000Y-146658000D01*
X189342000Y-146658000D02*
X189590000Y-146410000D01*
X189590000Y-146410000D02*
X189950000Y-146050000D01*
D41*
X206827000Y-149508000D02*
X206827000Y-150847000D01*
X206827000Y-150847000D02*
X206544000Y-151130000D01*
X206827000Y-143608000D02*
X206827000Y-144851000D01*
X206827000Y-144851000D02*
X207010000Y-145034000D01*
X195362000Y-142268000D02*
X195334000Y-142240000D01*
X213672000Y-149098000D02*
X213106000Y-149098000D01*
X212598000Y-149606000D02*
X212598000Y-153023000D01*
X213106000Y-149098000D02*
X212598000Y-149606000D01*
D42*
X213657000Y-153223000D02*
X213457000Y-153023000D01*
X213457000Y-153023000D02*
X212598000Y-153023000D01*
X212598000Y-153023000D02*
X211582000Y-153023000D01*
D41*
X206827000Y-149508000D02*
X206827000Y-148519000D01*
X206827000Y-148519000D02*
X207264000Y-148082000D01*
D40*
X188222000Y-146658000D02*
X188122000Y-146558000D01*
X188222000Y-146658000D02*
X188322000Y-146558000D01*
D41*
X184277000Y-137033000D02*
X192405000Y-137033000D01*
X192405000Y-137033000D02*
X192786000Y-137414000D01*
X192786000Y-137414000D02*
X201422000Y-137414000D01*
X201422000Y-137414000D02*
X204216000Y-140208000D01*
X204216000Y-140208000D02*
X207772000Y-140208000D01*
X207772000Y-140208000D02*
X210058000Y-142494000D01*
X210058000Y-142494000D02*
X210058000Y-146558000D01*
X210058000Y-146558000D02*
X208777000Y-147839000D01*
X208777000Y-147839000D02*
X208777000Y-149508000D01*
X179197000Y-137033000D02*
X180594000Y-135636000D01*
X209427000Y-147763740D02*
X209427000Y-149508000D01*
X210464402Y-146726338D02*
X209427000Y-147763740D01*
X210464402Y-142325662D02*
X210464402Y-146726338D01*
X207940338Y-139801598D02*
X210464402Y-142325662D01*
X204384338Y-139801598D02*
X207940338Y-139801598D01*
X201590338Y-137007598D02*
X204384338Y-139801598D01*
X193294000Y-137007598D02*
X201590338Y-137007598D01*
X192684402Y-136398000D02*
X193294000Y-137007598D01*
X185928000Y-136398000D02*
X192684402Y-136398000D01*
X185166000Y-135636000D02*
X185928000Y-136398000D01*
X180594000Y-135636000D02*
X185166000Y-135636000D01*
X218567000Y-138753000D02*
X218567000Y-139573000D01*
X218567000Y-139573000D02*
X221107000Y-142113000D01*
D40*
X217762000Y-143703000D02*
X217823000Y-143764000D01*
X217823000Y-143764000D02*
X221107000Y-143764000D01*
D43*
X221107000Y-142113000D02*
X221107000Y-143764000D01*
X221107000Y-143764000D02*
X221107000Y-145808000D01*
X221107000Y-145808000D02*
X220357000Y-146558000D01*
D42*
X211074000Y-135907780D02*
X208746220Y-135907780D01*
X208746220Y-135907780D02*
X208002000Y-136652000D01*
X214630000Y-135907780D02*
X211074000Y-135907780D01*
X203200000Y-136144000D02*
X199898000Y-136144000D01*
X199898000Y-136144000D02*
X198882000Y-135128000D01*
X205002000Y-136652000D02*
X203708000Y-136652000D01*
X203708000Y-136652000D02*
X203200000Y-136144000D01*
D41*
X217762000Y-145603000D02*
X216977000Y-145603000D01*
X216662000Y-136918700D02*
X217182700Y-136398000D01*
X216662000Y-145288000D02*
X216662000Y-136918700D01*
X216977000Y-145603000D02*
X216662000Y-145288000D01*
X215562000Y-145603000D02*
X215562000Y-146416000D01*
X215562000Y-146416000D02*
X216212000Y-147066000D01*
X200914000Y-139814300D02*
X202113300Y-139814300D01*
X202113300Y-139814300D02*
X202184000Y-139885000D01*
X214572000Y-149098000D02*
X215912700Y-149098000D01*
X191574000Y-149606000D02*
X191574000Y-150565700D01*
X191574000Y-150565700D02*
X191897000Y-150888700D01*
X218681300Y-136398000D02*
X218567000Y-136512300D01*
X218567000Y-136512300D02*
X218567000Y-137853000D01*
X194437000Y-139814300D02*
X195636300Y-139814300D01*
X195636300Y-139814300D02*
X195707000Y-139885000D01*
X197612000Y-139814300D02*
X198811300Y-139814300D01*
X198811300Y-139814300D02*
X198882000Y-139885000D01*
M02*
