G04 #@! TF.FileFunction,Copper,L3,Inr,Signal*
%FSLAX46Y46*%
G04 Gerber Fmt 4.6, Leading zero omitted, Abs format (unit mm)*
G04 Created by KiCad (PCBNEW 4.0.2-stable) date Sun 10 Apr 2016 09:46:26 PM EDT*
%MOMM*%
G01*
G04 APERTURE LIST*
%ADD10C,0.150000*%
%ADD11R,1.727200X2.032000*%
%ADD12O,1.727200X2.032000*%
%ADD13R,1.500000X1.500000*%
%ADD14C,1.500000*%
%ADD15R,2.032000X1.727200*%
%ADD16O,2.032000X1.727200*%
%ADD17O,1.250000X0.950000*%
%ADD18O,1.000000X1.550000*%
%ADD19C,0.762000*%
%ADD20C,0.203000*%
G04 APERTURE END LIST*
D10*
D11*
X176657000Y-137033000D03*
D12*
X179197000Y-137033000D03*
X181737000Y-137033000D03*
X184277000Y-137033000D03*
D13*
X198882000Y-135128000D03*
D14*
X196342000Y-135128000D03*
D13*
X221107000Y-142113000D03*
D14*
X221107000Y-139573000D03*
D15*
X220357000Y-151638000D03*
D16*
X220357000Y-149098000D03*
X220357000Y-146558000D03*
D17*
X195111100Y-150075460D03*
X200111100Y-150075460D03*
D18*
X194111100Y-152775460D03*
X201111100Y-152775460D03*
D19*
X210566000Y-140716000D03*
X214884000Y-138922000D03*
X203962000Y-145034000D03*
X204978000Y-147574000D03*
X209042000Y-138684000D03*
X204978000Y-145034000D03*
X205994000Y-145034000D03*
X206502000Y-136906000D03*
X198882000Y-138430000D03*
X196596000Y-146050000D03*
X193548000Y-141986000D03*
X191262000Y-146812000D03*
X188222000Y-138938000D03*
X211852000Y-138684000D03*
X206248000Y-148082000D03*
X218948000Y-144780000D03*
X215646000Y-139954000D03*
X198882000Y-151384000D03*
X192024000Y-153416000D03*
X218440000Y-149098000D03*
X211582000Y-150368000D03*
X218948000Y-153416000D03*
X189738000Y-148844000D03*
X194310000Y-143002000D03*
X190246000Y-147066000D03*
X189230000Y-142494000D03*
X207010000Y-145034000D03*
X201168000Y-143002000D03*
X212598000Y-153023000D03*
X207264000Y-148082000D03*
D20*
G36*
X195185300Y-135357033D02*
X195360995Y-135782249D01*
X195686040Y-136107861D01*
X196110949Y-136284299D01*
X196571033Y-136284700D01*
X196996249Y-136109005D01*
X197321861Y-135783960D01*
X197498299Y-135359051D01*
X197498412Y-135229500D01*
X197717537Y-135229500D01*
X197717537Y-135878000D01*
X197745882Y-136028640D01*
X197834910Y-136166993D01*
X197970751Y-136259809D01*
X198132000Y-136292463D01*
X199632000Y-136292463D01*
X199782640Y-136264118D01*
X199920993Y-136175090D01*
X200013809Y-136039249D01*
X200046463Y-135878000D01*
X200046463Y-135229500D01*
X200344425Y-135229500D01*
X200356478Y-135258598D01*
X200365249Y-135302695D01*
X200390228Y-135340079D01*
X200407434Y-135381617D01*
X200439226Y-135413409D01*
X200464206Y-135450794D01*
X200501591Y-135475774D01*
X200533382Y-135507565D01*
X200574919Y-135524770D01*
X200612305Y-135549751D01*
X200656405Y-135558523D01*
X200697941Y-135575728D01*
X200742900Y-135575728D01*
X200787000Y-135584500D01*
X220097361Y-135584500D01*
X220217618Y-136189075D01*
X220285780Y-136353634D01*
X220836383Y-137177669D01*
X220962331Y-137303617D01*
X221786366Y-137854220D01*
X221950925Y-137922383D01*
X221950930Y-137922383D01*
X222555500Y-138042639D01*
X222555500Y-153721500D01*
X219673838Y-153721500D01*
X219735363Y-153573331D01*
X219735636Y-153260044D01*
X219615999Y-152970500D01*
X219561657Y-152916063D01*
X221373000Y-152916063D01*
X221523640Y-152887718D01*
X221661993Y-152798690D01*
X221754809Y-152662849D01*
X221787463Y-152501600D01*
X221787463Y-150774400D01*
X221759118Y-150623760D01*
X221670090Y-150485407D01*
X221534249Y-150392591D01*
X221373000Y-150359937D01*
X220578306Y-150359937D01*
X221023314Y-150271419D01*
X221435364Y-149996096D01*
X221710687Y-149584046D01*
X221807368Y-149098000D01*
X221710687Y-148611954D01*
X221435364Y-148199904D01*
X221023314Y-147924581D01*
X220537771Y-147828000D01*
X221023314Y-147731419D01*
X221435364Y-147456096D01*
X221710687Y-147044046D01*
X221807368Y-146558000D01*
X221710687Y-146071954D01*
X221435364Y-145659904D01*
X221023314Y-145384581D01*
X220537268Y-145287900D01*
X220176732Y-145287900D01*
X219690686Y-145384581D01*
X219278636Y-145659904D01*
X219003313Y-146071954D01*
X218906632Y-146558000D01*
X219003313Y-147044046D01*
X219278636Y-147456096D01*
X219690686Y-147731419D01*
X220176229Y-147828000D01*
X219690686Y-147924581D01*
X219278636Y-148199904D01*
X219029059Y-148573422D01*
X218886665Y-148430779D01*
X218597331Y-148310637D01*
X218284044Y-148310364D01*
X217994500Y-148430001D01*
X217772779Y-148651335D01*
X217652637Y-148940669D01*
X217652364Y-149253956D01*
X217772001Y-149543500D01*
X217993335Y-149765221D01*
X218282669Y-149885363D01*
X218595956Y-149885636D01*
X218885500Y-149765999D01*
X219029104Y-149622645D01*
X219278636Y-149996096D01*
X219690686Y-150271419D01*
X220135694Y-150359937D01*
X219341000Y-150359937D01*
X219190360Y-150388282D01*
X219052007Y-150477310D01*
X218959191Y-150613151D01*
X218926537Y-150774400D01*
X218926537Y-152501600D01*
X218950415Y-152628502D01*
X218792044Y-152628364D01*
X218502500Y-152748001D01*
X218280779Y-152969335D01*
X218160637Y-153258669D01*
X218160364Y-153571956D01*
X218222154Y-153721500D01*
X201741764Y-153721500D01*
X201752092Y-153714599D01*
X201948597Y-153420510D01*
X202017600Y-153073607D01*
X202017600Y-152477313D01*
X201948597Y-152130410D01*
X201752092Y-151836321D01*
X201458003Y-151639816D01*
X201111100Y-151570813D01*
X200764197Y-151639816D01*
X200470108Y-151836321D01*
X200273603Y-152130410D01*
X200204600Y-152477313D01*
X200204600Y-153073607D01*
X200273603Y-153420510D01*
X200470108Y-153714599D01*
X200480436Y-153721500D01*
X194741764Y-153721500D01*
X194752092Y-153714599D01*
X194948597Y-153420510D01*
X195017600Y-153073607D01*
X195017600Y-152477313D01*
X194948597Y-152130410D01*
X194752092Y-151836321D01*
X194458003Y-151639816D01*
X194111100Y-151570813D01*
X193764197Y-151639816D01*
X193470108Y-151836321D01*
X193273603Y-152130410D01*
X193204600Y-152477313D01*
X193204600Y-153073607D01*
X193273603Y-153420510D01*
X193470108Y-153714599D01*
X193480436Y-153721500D01*
X192749838Y-153721500D01*
X192811363Y-153573331D01*
X192811636Y-153260044D01*
X192691999Y-152970500D01*
X192470665Y-152748779D01*
X192181331Y-152628637D01*
X191868044Y-152628364D01*
X191578500Y-152748001D01*
X191356779Y-152969335D01*
X191236637Y-153258669D01*
X191236364Y-153571956D01*
X191298154Y-153721500D01*
X172668500Y-153721500D01*
X172668500Y-151539956D01*
X198094364Y-151539956D01*
X198214001Y-151829500D01*
X198435335Y-152051221D01*
X198724669Y-152171363D01*
X199037956Y-152171636D01*
X199327500Y-152051999D01*
X199549221Y-151830665D01*
X199669363Y-151541331D01*
X199669636Y-151228044D01*
X199549999Y-150938500D01*
X199328665Y-150716779D01*
X199039331Y-150596637D01*
X198726044Y-150596364D01*
X198436500Y-150716001D01*
X198214779Y-150937335D01*
X198094637Y-151226669D01*
X198094364Y-151539956D01*
X172668500Y-151539956D01*
X172668500Y-150075460D01*
X194059392Y-150075460D01*
X194126492Y-150412795D01*
X194317577Y-150698775D01*
X194603557Y-150889860D01*
X194940892Y-150956960D01*
X195281308Y-150956960D01*
X195618643Y-150889860D01*
X195904623Y-150698775D01*
X196095708Y-150412795D01*
X196162808Y-150075460D01*
X199059392Y-150075460D01*
X199126492Y-150412795D01*
X199317577Y-150698775D01*
X199603557Y-150889860D01*
X199940892Y-150956960D01*
X200281308Y-150956960D01*
X200618643Y-150889860D01*
X200904623Y-150698775D01*
X201021432Y-150523956D01*
X210794364Y-150523956D01*
X210914001Y-150813500D01*
X211135335Y-151035221D01*
X211424669Y-151155363D01*
X211737956Y-151155636D01*
X212027500Y-151035999D01*
X212249221Y-150814665D01*
X212369363Y-150525331D01*
X212369636Y-150212044D01*
X212249999Y-149922500D01*
X212028665Y-149700779D01*
X211739331Y-149580637D01*
X211426044Y-149580364D01*
X211136500Y-149700001D01*
X210914779Y-149921335D01*
X210794637Y-150210669D01*
X210794364Y-150523956D01*
X201021432Y-150523956D01*
X201095708Y-150412795D01*
X201162808Y-150075460D01*
X201095708Y-149738125D01*
X200904623Y-149452145D01*
X200618643Y-149261060D01*
X200281308Y-149193960D01*
X199940892Y-149193960D01*
X199603557Y-149261060D01*
X199317577Y-149452145D01*
X199126492Y-149738125D01*
X199059392Y-150075460D01*
X196162808Y-150075460D01*
X196095708Y-149738125D01*
X195904623Y-149452145D01*
X195618643Y-149261060D01*
X195281308Y-149193960D01*
X194940892Y-149193960D01*
X194603557Y-149261060D01*
X194317577Y-149452145D01*
X194126492Y-149738125D01*
X194059392Y-150075460D01*
X172668500Y-150075460D01*
X172668500Y-148999956D01*
X188950364Y-148999956D01*
X189070001Y-149289500D01*
X189291335Y-149511221D01*
X189580669Y-149631363D01*
X189893956Y-149631636D01*
X190183500Y-149511999D01*
X190405221Y-149290665D01*
X190525363Y-149001331D01*
X190525636Y-148688044D01*
X190405999Y-148398500D01*
X190184665Y-148176779D01*
X189895331Y-148056637D01*
X189582044Y-148056364D01*
X189292500Y-148176001D01*
X189070779Y-148397335D01*
X188950637Y-148686669D01*
X188950364Y-148999956D01*
X172668500Y-148999956D01*
X172668500Y-147729956D01*
X204190364Y-147729956D01*
X204310001Y-148019500D01*
X204531335Y-148241221D01*
X204820669Y-148361363D01*
X205133956Y-148361636D01*
X205423500Y-148241999D01*
X205460393Y-148205171D01*
X205460364Y-148237956D01*
X205580001Y-148527500D01*
X205801335Y-148749221D01*
X206090669Y-148869363D01*
X206403956Y-148869636D01*
X206693500Y-148749999D01*
X206915221Y-148528665D01*
X207035363Y-148239331D01*
X207035636Y-147926044D01*
X206915999Y-147636500D01*
X206694665Y-147414779D01*
X206405331Y-147294637D01*
X206092044Y-147294364D01*
X205802500Y-147414001D01*
X205765607Y-147450829D01*
X205765636Y-147418044D01*
X205645999Y-147128500D01*
X205424665Y-146906779D01*
X205135331Y-146786637D01*
X204822044Y-146786364D01*
X204532500Y-146906001D01*
X204310779Y-147127335D01*
X204190637Y-147416669D01*
X204190364Y-147729956D01*
X172668500Y-147729956D01*
X172668500Y-146967956D01*
X190474364Y-146967956D01*
X190594001Y-147257500D01*
X190815335Y-147479221D01*
X191104669Y-147599363D01*
X191417956Y-147599636D01*
X191707500Y-147479999D01*
X191929221Y-147258665D01*
X192049363Y-146969331D01*
X192049636Y-146656044D01*
X191929999Y-146366500D01*
X191769736Y-146205956D01*
X195808364Y-146205956D01*
X195928001Y-146495500D01*
X196149335Y-146717221D01*
X196438669Y-146837363D01*
X196751956Y-146837636D01*
X197041500Y-146717999D01*
X197263221Y-146496665D01*
X197383363Y-146207331D01*
X197383636Y-145894044D01*
X197263999Y-145604500D01*
X197042665Y-145382779D01*
X196753331Y-145262637D01*
X196440044Y-145262364D01*
X196150500Y-145382001D01*
X195928779Y-145603335D01*
X195808637Y-145892669D01*
X195808364Y-146205956D01*
X191769736Y-146205956D01*
X191708665Y-146144779D01*
X191419331Y-146024637D01*
X191106044Y-146024364D01*
X190816500Y-146144001D01*
X190594779Y-146365335D01*
X190474637Y-146654669D01*
X190474364Y-146967956D01*
X172668500Y-146967956D01*
X172668500Y-145189956D01*
X203174364Y-145189956D01*
X203294001Y-145479500D01*
X203515335Y-145701221D01*
X203804669Y-145821363D01*
X204117956Y-145821636D01*
X204407500Y-145701999D01*
X204469915Y-145639693D01*
X204531335Y-145701221D01*
X204820669Y-145821363D01*
X205133956Y-145821636D01*
X205423500Y-145701999D01*
X205485915Y-145639693D01*
X205547335Y-145701221D01*
X205836669Y-145821363D01*
X206149956Y-145821636D01*
X206439500Y-145701999D01*
X206661221Y-145480665D01*
X206781363Y-145191331D01*
X206781585Y-144935956D01*
X218160364Y-144935956D01*
X218280001Y-145225500D01*
X218501335Y-145447221D01*
X218790669Y-145567363D01*
X219103956Y-145567636D01*
X219393500Y-145447999D01*
X219615221Y-145226665D01*
X219735363Y-144937331D01*
X219735636Y-144624044D01*
X219615999Y-144334500D01*
X219394665Y-144112779D01*
X219105331Y-143992637D01*
X218792044Y-143992364D01*
X218502500Y-144112001D01*
X218280779Y-144333335D01*
X218160637Y-144622669D01*
X218160364Y-144935956D01*
X206781585Y-144935956D01*
X206781636Y-144878044D01*
X206661999Y-144588500D01*
X206440665Y-144366779D01*
X206151331Y-144246637D01*
X205838044Y-144246364D01*
X205548500Y-144366001D01*
X205486085Y-144428307D01*
X205424665Y-144366779D01*
X205135331Y-144246637D01*
X204822044Y-144246364D01*
X204532500Y-144366001D01*
X204470085Y-144428307D01*
X204408665Y-144366779D01*
X204119331Y-144246637D01*
X203806044Y-144246364D01*
X203516500Y-144366001D01*
X203294779Y-144587335D01*
X203174637Y-144876669D01*
X203174364Y-145189956D01*
X172668500Y-145189956D01*
X172668500Y-142141956D01*
X192760364Y-142141956D01*
X192880001Y-142431500D01*
X193101335Y-142653221D01*
X193390669Y-142773363D01*
X193703956Y-142773636D01*
X193993500Y-142653999D01*
X194215221Y-142432665D01*
X194335363Y-142143331D01*
X194335636Y-141830044D01*
X194215999Y-141540500D01*
X193994665Y-141318779D01*
X193705331Y-141198637D01*
X193392044Y-141198364D01*
X193102500Y-141318001D01*
X192880779Y-141539335D01*
X192760637Y-141828669D01*
X192760364Y-142141956D01*
X172668500Y-142141956D01*
X172668500Y-140871956D01*
X209778364Y-140871956D01*
X209898001Y-141161500D01*
X210119335Y-141383221D01*
X210408669Y-141503363D01*
X210721956Y-141503636D01*
X211011500Y-141383999D01*
X211032535Y-141363000D01*
X219942537Y-141363000D01*
X219942537Y-142863000D01*
X219970882Y-143013640D01*
X220059910Y-143151993D01*
X220195751Y-143244809D01*
X220357000Y-143277463D01*
X221857000Y-143277463D01*
X222007640Y-143249118D01*
X222145993Y-143160090D01*
X222238809Y-143024249D01*
X222271463Y-142863000D01*
X222271463Y-141363000D01*
X222243118Y-141212360D01*
X222154090Y-141074007D01*
X222018249Y-140981191D01*
X221857000Y-140948537D01*
X220357000Y-140948537D01*
X220206360Y-140976882D01*
X220068007Y-141065910D01*
X219975191Y-141201751D01*
X219942537Y-141363000D01*
X211032535Y-141363000D01*
X211233221Y-141162665D01*
X211353363Y-140873331D01*
X211353636Y-140560044D01*
X211233999Y-140270500D01*
X211012665Y-140048779D01*
X210723331Y-139928637D01*
X210410044Y-139928364D01*
X210120500Y-140048001D01*
X209898779Y-140269335D01*
X209778637Y-140558669D01*
X209778364Y-140871956D01*
X172668500Y-140871956D01*
X172668500Y-139093956D01*
X187434364Y-139093956D01*
X187554001Y-139383500D01*
X187775335Y-139605221D01*
X188064669Y-139725363D01*
X188377956Y-139725636D01*
X188667500Y-139605999D01*
X188889221Y-139384665D01*
X189009363Y-139095331D01*
X189009636Y-138782044D01*
X188928615Y-138585956D01*
X198094364Y-138585956D01*
X198214001Y-138875500D01*
X198435335Y-139097221D01*
X198724669Y-139217363D01*
X199037956Y-139217636D01*
X199327500Y-139097999D01*
X199549221Y-138876665D01*
X199564463Y-138839956D01*
X208254364Y-138839956D01*
X208374001Y-139129500D01*
X208595335Y-139351221D01*
X208884669Y-139471363D01*
X209197956Y-139471636D01*
X209487500Y-139351999D01*
X209709221Y-139130665D01*
X209829363Y-138841331D01*
X209829364Y-138839956D01*
X211064364Y-138839956D01*
X211184001Y-139129500D01*
X211405335Y-139351221D01*
X211694669Y-139471363D01*
X212007956Y-139471636D01*
X212297500Y-139351999D01*
X212519221Y-139130665D01*
X212541107Y-139077956D01*
X214096364Y-139077956D01*
X214216001Y-139367500D01*
X214437335Y-139589221D01*
X214726669Y-139709363D01*
X214894829Y-139709510D01*
X214858637Y-139796669D01*
X214858364Y-140109956D01*
X214978001Y-140399500D01*
X215199335Y-140621221D01*
X215488669Y-140741363D01*
X215801956Y-140741636D01*
X216091500Y-140621999D01*
X216313221Y-140400665D01*
X216433363Y-140111331D01*
X216433632Y-139802033D01*
X219950300Y-139802033D01*
X220125995Y-140227249D01*
X220451040Y-140552861D01*
X220875949Y-140729299D01*
X221336033Y-140729700D01*
X221761249Y-140554005D01*
X222086861Y-140228960D01*
X222263299Y-139804051D01*
X222263700Y-139343967D01*
X222088005Y-138918751D01*
X221762960Y-138593139D01*
X221338051Y-138416701D01*
X220877967Y-138416300D01*
X220452751Y-138591995D01*
X220127139Y-138917040D01*
X219950701Y-139341949D01*
X219950300Y-139802033D01*
X216433632Y-139802033D01*
X216433636Y-139798044D01*
X216313999Y-139508500D01*
X216092665Y-139286779D01*
X215803331Y-139166637D01*
X215635171Y-139166490D01*
X215671363Y-139079331D01*
X215671636Y-138766044D01*
X215551999Y-138476500D01*
X215330665Y-138254779D01*
X215041331Y-138134637D01*
X214728044Y-138134364D01*
X214438500Y-138254001D01*
X214216779Y-138475335D01*
X214096637Y-138764669D01*
X214096364Y-139077956D01*
X212541107Y-139077956D01*
X212639363Y-138841331D01*
X212639636Y-138528044D01*
X212519999Y-138238500D01*
X212298665Y-138016779D01*
X212009331Y-137896637D01*
X211696044Y-137896364D01*
X211406500Y-138016001D01*
X211184779Y-138237335D01*
X211064637Y-138526669D01*
X211064364Y-138839956D01*
X209829364Y-138839956D01*
X209829636Y-138528044D01*
X209709999Y-138238500D01*
X209488665Y-138016779D01*
X209199331Y-137896637D01*
X208886044Y-137896364D01*
X208596500Y-138016001D01*
X208374779Y-138237335D01*
X208254637Y-138526669D01*
X208254364Y-138839956D01*
X199564463Y-138839956D01*
X199669363Y-138587331D01*
X199669636Y-138274044D01*
X199549999Y-137984500D01*
X199328665Y-137762779D01*
X199039331Y-137642637D01*
X198726044Y-137642364D01*
X198436500Y-137762001D01*
X198214779Y-137983335D01*
X198094637Y-138272669D01*
X198094364Y-138585956D01*
X188928615Y-138585956D01*
X188889999Y-138492500D01*
X188668665Y-138270779D01*
X188379331Y-138150637D01*
X188066044Y-138150364D01*
X187776500Y-138270001D01*
X187554779Y-138491335D01*
X187434637Y-138780669D01*
X187434364Y-139093956D01*
X172668500Y-139093956D01*
X172668500Y-138042639D01*
X173273075Y-137922382D01*
X173437634Y-137854220D01*
X174261669Y-137303617D01*
X174387617Y-137177669D01*
X174416044Y-137135125D01*
X175386900Y-137135125D01*
X175386900Y-138129858D01*
X175448786Y-138279264D01*
X175563136Y-138393614D01*
X175712542Y-138455500D01*
X176554875Y-138455500D01*
X176656500Y-138353875D01*
X176656500Y-137033500D01*
X175488525Y-137033500D01*
X175386900Y-137135125D01*
X174416044Y-137135125D01*
X174938220Y-136353634D01*
X175006383Y-136189075D01*
X175006383Y-136189070D01*
X175056693Y-135936142D01*
X175386900Y-135936142D01*
X175386900Y-136930875D01*
X175488525Y-137032500D01*
X176656500Y-137032500D01*
X176656500Y-135712125D01*
X176554875Y-135610500D01*
X175712542Y-135610500D01*
X175563136Y-135672386D01*
X175448786Y-135786736D01*
X175386900Y-135936142D01*
X175056693Y-135936142D01*
X175126639Y-135584500D01*
X179187609Y-135584500D01*
X178710954Y-135679313D01*
X178298904Y-135954636D01*
X178023581Y-136366686D01*
X177927100Y-136851727D01*
X177927100Y-135936142D01*
X177865214Y-135786736D01*
X177750864Y-135672386D01*
X177601458Y-135610500D01*
X176759125Y-135610500D01*
X176657500Y-135712125D01*
X176657500Y-137032500D01*
X176677500Y-137032500D01*
X176677500Y-137033500D01*
X176657500Y-137033500D01*
X176657500Y-138353875D01*
X176759125Y-138455500D01*
X177601458Y-138455500D01*
X177750864Y-138393614D01*
X177865214Y-138279264D01*
X177927100Y-138129858D01*
X177927100Y-137214273D01*
X178023581Y-137699314D01*
X178298904Y-138111364D01*
X178710954Y-138386687D01*
X179197000Y-138483368D01*
X179683046Y-138386687D01*
X180095096Y-138111364D01*
X180370419Y-137699314D01*
X180467000Y-137213771D01*
X180563581Y-137699314D01*
X180838904Y-138111364D01*
X181250954Y-138386687D01*
X181737000Y-138483368D01*
X182223046Y-138386687D01*
X182635096Y-138111364D01*
X182910419Y-137699314D01*
X183007000Y-137213771D01*
X183103581Y-137699314D01*
X183378904Y-138111364D01*
X183790954Y-138386687D01*
X184277000Y-138483368D01*
X184763046Y-138386687D01*
X185175096Y-138111364D01*
X185450419Y-137699314D01*
X185547100Y-137213268D01*
X185547100Y-137061956D01*
X205714364Y-137061956D01*
X205834001Y-137351500D01*
X206055335Y-137573221D01*
X206344669Y-137693363D01*
X206657956Y-137693636D01*
X206947500Y-137573999D01*
X207169221Y-137352665D01*
X207289363Y-137063331D01*
X207289636Y-136750044D01*
X207169999Y-136460500D01*
X206948665Y-136238779D01*
X206659331Y-136118637D01*
X206346044Y-136118364D01*
X206056500Y-136238001D01*
X205834779Y-136459335D01*
X205714637Y-136748669D01*
X205714364Y-137061956D01*
X185547100Y-137061956D01*
X185547100Y-136852732D01*
X185450419Y-136366686D01*
X185175096Y-135954636D01*
X184763046Y-135679313D01*
X184286391Y-135584500D01*
X194437000Y-135584500D01*
X194481100Y-135575728D01*
X194526059Y-135575728D01*
X194567597Y-135558523D01*
X194611695Y-135549751D01*
X194649078Y-135524772D01*
X194690618Y-135507566D01*
X194722412Y-135475772D01*
X194759794Y-135450794D01*
X194784772Y-135413412D01*
X194816566Y-135381618D01*
X194833772Y-135340078D01*
X194858751Y-135302695D01*
X194867523Y-135258597D01*
X194879575Y-135229500D01*
X195185411Y-135229500D01*
X195185300Y-135357033D01*
X195185300Y-135357033D01*
G37*
X195185300Y-135357033D02*
X195360995Y-135782249D01*
X195686040Y-136107861D01*
X196110949Y-136284299D01*
X196571033Y-136284700D01*
X196996249Y-136109005D01*
X197321861Y-135783960D01*
X197498299Y-135359051D01*
X197498412Y-135229500D01*
X197717537Y-135229500D01*
X197717537Y-135878000D01*
X197745882Y-136028640D01*
X197834910Y-136166993D01*
X197970751Y-136259809D01*
X198132000Y-136292463D01*
X199632000Y-136292463D01*
X199782640Y-136264118D01*
X199920993Y-136175090D01*
X200013809Y-136039249D01*
X200046463Y-135878000D01*
X200046463Y-135229500D01*
X200344425Y-135229500D01*
X200356478Y-135258598D01*
X200365249Y-135302695D01*
X200390228Y-135340079D01*
X200407434Y-135381617D01*
X200439226Y-135413409D01*
X200464206Y-135450794D01*
X200501591Y-135475774D01*
X200533382Y-135507565D01*
X200574919Y-135524770D01*
X200612305Y-135549751D01*
X200656405Y-135558523D01*
X200697941Y-135575728D01*
X200742900Y-135575728D01*
X200787000Y-135584500D01*
X220097361Y-135584500D01*
X220217618Y-136189075D01*
X220285780Y-136353634D01*
X220836383Y-137177669D01*
X220962331Y-137303617D01*
X221786366Y-137854220D01*
X221950925Y-137922383D01*
X221950930Y-137922383D01*
X222555500Y-138042639D01*
X222555500Y-153721500D01*
X219673838Y-153721500D01*
X219735363Y-153573331D01*
X219735636Y-153260044D01*
X219615999Y-152970500D01*
X219561657Y-152916063D01*
X221373000Y-152916063D01*
X221523640Y-152887718D01*
X221661993Y-152798690D01*
X221754809Y-152662849D01*
X221787463Y-152501600D01*
X221787463Y-150774400D01*
X221759118Y-150623760D01*
X221670090Y-150485407D01*
X221534249Y-150392591D01*
X221373000Y-150359937D01*
X220578306Y-150359937D01*
X221023314Y-150271419D01*
X221435364Y-149996096D01*
X221710687Y-149584046D01*
X221807368Y-149098000D01*
X221710687Y-148611954D01*
X221435364Y-148199904D01*
X221023314Y-147924581D01*
X220537771Y-147828000D01*
X221023314Y-147731419D01*
X221435364Y-147456096D01*
X221710687Y-147044046D01*
X221807368Y-146558000D01*
X221710687Y-146071954D01*
X221435364Y-145659904D01*
X221023314Y-145384581D01*
X220537268Y-145287900D01*
X220176732Y-145287900D01*
X219690686Y-145384581D01*
X219278636Y-145659904D01*
X219003313Y-146071954D01*
X218906632Y-146558000D01*
X219003313Y-147044046D01*
X219278636Y-147456096D01*
X219690686Y-147731419D01*
X220176229Y-147828000D01*
X219690686Y-147924581D01*
X219278636Y-148199904D01*
X219029059Y-148573422D01*
X218886665Y-148430779D01*
X218597331Y-148310637D01*
X218284044Y-148310364D01*
X217994500Y-148430001D01*
X217772779Y-148651335D01*
X217652637Y-148940669D01*
X217652364Y-149253956D01*
X217772001Y-149543500D01*
X217993335Y-149765221D01*
X218282669Y-149885363D01*
X218595956Y-149885636D01*
X218885500Y-149765999D01*
X219029104Y-149622645D01*
X219278636Y-149996096D01*
X219690686Y-150271419D01*
X220135694Y-150359937D01*
X219341000Y-150359937D01*
X219190360Y-150388282D01*
X219052007Y-150477310D01*
X218959191Y-150613151D01*
X218926537Y-150774400D01*
X218926537Y-152501600D01*
X218950415Y-152628502D01*
X218792044Y-152628364D01*
X218502500Y-152748001D01*
X218280779Y-152969335D01*
X218160637Y-153258669D01*
X218160364Y-153571956D01*
X218222154Y-153721500D01*
X201741764Y-153721500D01*
X201752092Y-153714599D01*
X201948597Y-153420510D01*
X202017600Y-153073607D01*
X202017600Y-152477313D01*
X201948597Y-152130410D01*
X201752092Y-151836321D01*
X201458003Y-151639816D01*
X201111100Y-151570813D01*
X200764197Y-151639816D01*
X200470108Y-151836321D01*
X200273603Y-152130410D01*
X200204600Y-152477313D01*
X200204600Y-153073607D01*
X200273603Y-153420510D01*
X200470108Y-153714599D01*
X200480436Y-153721500D01*
X194741764Y-153721500D01*
X194752092Y-153714599D01*
X194948597Y-153420510D01*
X195017600Y-153073607D01*
X195017600Y-152477313D01*
X194948597Y-152130410D01*
X194752092Y-151836321D01*
X194458003Y-151639816D01*
X194111100Y-151570813D01*
X193764197Y-151639816D01*
X193470108Y-151836321D01*
X193273603Y-152130410D01*
X193204600Y-152477313D01*
X193204600Y-153073607D01*
X193273603Y-153420510D01*
X193470108Y-153714599D01*
X193480436Y-153721500D01*
X192749838Y-153721500D01*
X192811363Y-153573331D01*
X192811636Y-153260044D01*
X192691999Y-152970500D01*
X192470665Y-152748779D01*
X192181331Y-152628637D01*
X191868044Y-152628364D01*
X191578500Y-152748001D01*
X191356779Y-152969335D01*
X191236637Y-153258669D01*
X191236364Y-153571956D01*
X191298154Y-153721500D01*
X172668500Y-153721500D01*
X172668500Y-151539956D01*
X198094364Y-151539956D01*
X198214001Y-151829500D01*
X198435335Y-152051221D01*
X198724669Y-152171363D01*
X199037956Y-152171636D01*
X199327500Y-152051999D01*
X199549221Y-151830665D01*
X199669363Y-151541331D01*
X199669636Y-151228044D01*
X199549999Y-150938500D01*
X199328665Y-150716779D01*
X199039331Y-150596637D01*
X198726044Y-150596364D01*
X198436500Y-150716001D01*
X198214779Y-150937335D01*
X198094637Y-151226669D01*
X198094364Y-151539956D01*
X172668500Y-151539956D01*
X172668500Y-150075460D01*
X194059392Y-150075460D01*
X194126492Y-150412795D01*
X194317577Y-150698775D01*
X194603557Y-150889860D01*
X194940892Y-150956960D01*
X195281308Y-150956960D01*
X195618643Y-150889860D01*
X195904623Y-150698775D01*
X196095708Y-150412795D01*
X196162808Y-150075460D01*
X199059392Y-150075460D01*
X199126492Y-150412795D01*
X199317577Y-150698775D01*
X199603557Y-150889860D01*
X199940892Y-150956960D01*
X200281308Y-150956960D01*
X200618643Y-150889860D01*
X200904623Y-150698775D01*
X201021432Y-150523956D01*
X210794364Y-150523956D01*
X210914001Y-150813500D01*
X211135335Y-151035221D01*
X211424669Y-151155363D01*
X211737956Y-151155636D01*
X212027500Y-151035999D01*
X212249221Y-150814665D01*
X212369363Y-150525331D01*
X212369636Y-150212044D01*
X212249999Y-149922500D01*
X212028665Y-149700779D01*
X211739331Y-149580637D01*
X211426044Y-149580364D01*
X211136500Y-149700001D01*
X210914779Y-149921335D01*
X210794637Y-150210669D01*
X210794364Y-150523956D01*
X201021432Y-150523956D01*
X201095708Y-150412795D01*
X201162808Y-150075460D01*
X201095708Y-149738125D01*
X200904623Y-149452145D01*
X200618643Y-149261060D01*
X200281308Y-149193960D01*
X199940892Y-149193960D01*
X199603557Y-149261060D01*
X199317577Y-149452145D01*
X199126492Y-149738125D01*
X199059392Y-150075460D01*
X196162808Y-150075460D01*
X196095708Y-149738125D01*
X195904623Y-149452145D01*
X195618643Y-149261060D01*
X195281308Y-149193960D01*
X194940892Y-149193960D01*
X194603557Y-149261060D01*
X194317577Y-149452145D01*
X194126492Y-149738125D01*
X194059392Y-150075460D01*
X172668500Y-150075460D01*
X172668500Y-148999956D01*
X188950364Y-148999956D01*
X189070001Y-149289500D01*
X189291335Y-149511221D01*
X189580669Y-149631363D01*
X189893956Y-149631636D01*
X190183500Y-149511999D01*
X190405221Y-149290665D01*
X190525363Y-149001331D01*
X190525636Y-148688044D01*
X190405999Y-148398500D01*
X190184665Y-148176779D01*
X189895331Y-148056637D01*
X189582044Y-148056364D01*
X189292500Y-148176001D01*
X189070779Y-148397335D01*
X188950637Y-148686669D01*
X188950364Y-148999956D01*
X172668500Y-148999956D01*
X172668500Y-147729956D01*
X204190364Y-147729956D01*
X204310001Y-148019500D01*
X204531335Y-148241221D01*
X204820669Y-148361363D01*
X205133956Y-148361636D01*
X205423500Y-148241999D01*
X205460393Y-148205171D01*
X205460364Y-148237956D01*
X205580001Y-148527500D01*
X205801335Y-148749221D01*
X206090669Y-148869363D01*
X206403956Y-148869636D01*
X206693500Y-148749999D01*
X206915221Y-148528665D01*
X207035363Y-148239331D01*
X207035636Y-147926044D01*
X206915999Y-147636500D01*
X206694665Y-147414779D01*
X206405331Y-147294637D01*
X206092044Y-147294364D01*
X205802500Y-147414001D01*
X205765607Y-147450829D01*
X205765636Y-147418044D01*
X205645999Y-147128500D01*
X205424665Y-146906779D01*
X205135331Y-146786637D01*
X204822044Y-146786364D01*
X204532500Y-146906001D01*
X204310779Y-147127335D01*
X204190637Y-147416669D01*
X204190364Y-147729956D01*
X172668500Y-147729956D01*
X172668500Y-146967956D01*
X190474364Y-146967956D01*
X190594001Y-147257500D01*
X190815335Y-147479221D01*
X191104669Y-147599363D01*
X191417956Y-147599636D01*
X191707500Y-147479999D01*
X191929221Y-147258665D01*
X192049363Y-146969331D01*
X192049636Y-146656044D01*
X191929999Y-146366500D01*
X191769736Y-146205956D01*
X195808364Y-146205956D01*
X195928001Y-146495500D01*
X196149335Y-146717221D01*
X196438669Y-146837363D01*
X196751956Y-146837636D01*
X197041500Y-146717999D01*
X197263221Y-146496665D01*
X197383363Y-146207331D01*
X197383636Y-145894044D01*
X197263999Y-145604500D01*
X197042665Y-145382779D01*
X196753331Y-145262637D01*
X196440044Y-145262364D01*
X196150500Y-145382001D01*
X195928779Y-145603335D01*
X195808637Y-145892669D01*
X195808364Y-146205956D01*
X191769736Y-146205956D01*
X191708665Y-146144779D01*
X191419331Y-146024637D01*
X191106044Y-146024364D01*
X190816500Y-146144001D01*
X190594779Y-146365335D01*
X190474637Y-146654669D01*
X190474364Y-146967956D01*
X172668500Y-146967956D01*
X172668500Y-145189956D01*
X203174364Y-145189956D01*
X203294001Y-145479500D01*
X203515335Y-145701221D01*
X203804669Y-145821363D01*
X204117956Y-145821636D01*
X204407500Y-145701999D01*
X204469915Y-145639693D01*
X204531335Y-145701221D01*
X204820669Y-145821363D01*
X205133956Y-145821636D01*
X205423500Y-145701999D01*
X205485915Y-145639693D01*
X205547335Y-145701221D01*
X205836669Y-145821363D01*
X206149956Y-145821636D01*
X206439500Y-145701999D01*
X206661221Y-145480665D01*
X206781363Y-145191331D01*
X206781585Y-144935956D01*
X218160364Y-144935956D01*
X218280001Y-145225500D01*
X218501335Y-145447221D01*
X218790669Y-145567363D01*
X219103956Y-145567636D01*
X219393500Y-145447999D01*
X219615221Y-145226665D01*
X219735363Y-144937331D01*
X219735636Y-144624044D01*
X219615999Y-144334500D01*
X219394665Y-144112779D01*
X219105331Y-143992637D01*
X218792044Y-143992364D01*
X218502500Y-144112001D01*
X218280779Y-144333335D01*
X218160637Y-144622669D01*
X218160364Y-144935956D01*
X206781585Y-144935956D01*
X206781636Y-144878044D01*
X206661999Y-144588500D01*
X206440665Y-144366779D01*
X206151331Y-144246637D01*
X205838044Y-144246364D01*
X205548500Y-144366001D01*
X205486085Y-144428307D01*
X205424665Y-144366779D01*
X205135331Y-144246637D01*
X204822044Y-144246364D01*
X204532500Y-144366001D01*
X204470085Y-144428307D01*
X204408665Y-144366779D01*
X204119331Y-144246637D01*
X203806044Y-144246364D01*
X203516500Y-144366001D01*
X203294779Y-144587335D01*
X203174637Y-144876669D01*
X203174364Y-145189956D01*
X172668500Y-145189956D01*
X172668500Y-142141956D01*
X192760364Y-142141956D01*
X192880001Y-142431500D01*
X193101335Y-142653221D01*
X193390669Y-142773363D01*
X193703956Y-142773636D01*
X193993500Y-142653999D01*
X194215221Y-142432665D01*
X194335363Y-142143331D01*
X194335636Y-141830044D01*
X194215999Y-141540500D01*
X193994665Y-141318779D01*
X193705331Y-141198637D01*
X193392044Y-141198364D01*
X193102500Y-141318001D01*
X192880779Y-141539335D01*
X192760637Y-141828669D01*
X192760364Y-142141956D01*
X172668500Y-142141956D01*
X172668500Y-140871956D01*
X209778364Y-140871956D01*
X209898001Y-141161500D01*
X210119335Y-141383221D01*
X210408669Y-141503363D01*
X210721956Y-141503636D01*
X211011500Y-141383999D01*
X211032535Y-141363000D01*
X219942537Y-141363000D01*
X219942537Y-142863000D01*
X219970882Y-143013640D01*
X220059910Y-143151993D01*
X220195751Y-143244809D01*
X220357000Y-143277463D01*
X221857000Y-143277463D01*
X222007640Y-143249118D01*
X222145993Y-143160090D01*
X222238809Y-143024249D01*
X222271463Y-142863000D01*
X222271463Y-141363000D01*
X222243118Y-141212360D01*
X222154090Y-141074007D01*
X222018249Y-140981191D01*
X221857000Y-140948537D01*
X220357000Y-140948537D01*
X220206360Y-140976882D01*
X220068007Y-141065910D01*
X219975191Y-141201751D01*
X219942537Y-141363000D01*
X211032535Y-141363000D01*
X211233221Y-141162665D01*
X211353363Y-140873331D01*
X211353636Y-140560044D01*
X211233999Y-140270500D01*
X211012665Y-140048779D01*
X210723331Y-139928637D01*
X210410044Y-139928364D01*
X210120500Y-140048001D01*
X209898779Y-140269335D01*
X209778637Y-140558669D01*
X209778364Y-140871956D01*
X172668500Y-140871956D01*
X172668500Y-139093956D01*
X187434364Y-139093956D01*
X187554001Y-139383500D01*
X187775335Y-139605221D01*
X188064669Y-139725363D01*
X188377956Y-139725636D01*
X188667500Y-139605999D01*
X188889221Y-139384665D01*
X189009363Y-139095331D01*
X189009636Y-138782044D01*
X188928615Y-138585956D01*
X198094364Y-138585956D01*
X198214001Y-138875500D01*
X198435335Y-139097221D01*
X198724669Y-139217363D01*
X199037956Y-139217636D01*
X199327500Y-139097999D01*
X199549221Y-138876665D01*
X199564463Y-138839956D01*
X208254364Y-138839956D01*
X208374001Y-139129500D01*
X208595335Y-139351221D01*
X208884669Y-139471363D01*
X209197956Y-139471636D01*
X209487500Y-139351999D01*
X209709221Y-139130665D01*
X209829363Y-138841331D01*
X209829364Y-138839956D01*
X211064364Y-138839956D01*
X211184001Y-139129500D01*
X211405335Y-139351221D01*
X211694669Y-139471363D01*
X212007956Y-139471636D01*
X212297500Y-139351999D01*
X212519221Y-139130665D01*
X212541107Y-139077956D01*
X214096364Y-139077956D01*
X214216001Y-139367500D01*
X214437335Y-139589221D01*
X214726669Y-139709363D01*
X214894829Y-139709510D01*
X214858637Y-139796669D01*
X214858364Y-140109956D01*
X214978001Y-140399500D01*
X215199335Y-140621221D01*
X215488669Y-140741363D01*
X215801956Y-140741636D01*
X216091500Y-140621999D01*
X216313221Y-140400665D01*
X216433363Y-140111331D01*
X216433632Y-139802033D01*
X219950300Y-139802033D01*
X220125995Y-140227249D01*
X220451040Y-140552861D01*
X220875949Y-140729299D01*
X221336033Y-140729700D01*
X221761249Y-140554005D01*
X222086861Y-140228960D01*
X222263299Y-139804051D01*
X222263700Y-139343967D01*
X222088005Y-138918751D01*
X221762960Y-138593139D01*
X221338051Y-138416701D01*
X220877967Y-138416300D01*
X220452751Y-138591995D01*
X220127139Y-138917040D01*
X219950701Y-139341949D01*
X219950300Y-139802033D01*
X216433632Y-139802033D01*
X216433636Y-139798044D01*
X216313999Y-139508500D01*
X216092665Y-139286779D01*
X215803331Y-139166637D01*
X215635171Y-139166490D01*
X215671363Y-139079331D01*
X215671636Y-138766044D01*
X215551999Y-138476500D01*
X215330665Y-138254779D01*
X215041331Y-138134637D01*
X214728044Y-138134364D01*
X214438500Y-138254001D01*
X214216779Y-138475335D01*
X214096637Y-138764669D01*
X214096364Y-139077956D01*
X212541107Y-139077956D01*
X212639363Y-138841331D01*
X212639636Y-138528044D01*
X212519999Y-138238500D01*
X212298665Y-138016779D01*
X212009331Y-137896637D01*
X211696044Y-137896364D01*
X211406500Y-138016001D01*
X211184779Y-138237335D01*
X211064637Y-138526669D01*
X211064364Y-138839956D01*
X209829364Y-138839956D01*
X209829636Y-138528044D01*
X209709999Y-138238500D01*
X209488665Y-138016779D01*
X209199331Y-137896637D01*
X208886044Y-137896364D01*
X208596500Y-138016001D01*
X208374779Y-138237335D01*
X208254637Y-138526669D01*
X208254364Y-138839956D01*
X199564463Y-138839956D01*
X199669363Y-138587331D01*
X199669636Y-138274044D01*
X199549999Y-137984500D01*
X199328665Y-137762779D01*
X199039331Y-137642637D01*
X198726044Y-137642364D01*
X198436500Y-137762001D01*
X198214779Y-137983335D01*
X198094637Y-138272669D01*
X198094364Y-138585956D01*
X188928615Y-138585956D01*
X188889999Y-138492500D01*
X188668665Y-138270779D01*
X188379331Y-138150637D01*
X188066044Y-138150364D01*
X187776500Y-138270001D01*
X187554779Y-138491335D01*
X187434637Y-138780669D01*
X187434364Y-139093956D01*
X172668500Y-139093956D01*
X172668500Y-138042639D01*
X173273075Y-137922382D01*
X173437634Y-137854220D01*
X174261669Y-137303617D01*
X174387617Y-137177669D01*
X174416044Y-137135125D01*
X175386900Y-137135125D01*
X175386900Y-138129858D01*
X175448786Y-138279264D01*
X175563136Y-138393614D01*
X175712542Y-138455500D01*
X176554875Y-138455500D01*
X176656500Y-138353875D01*
X176656500Y-137033500D01*
X175488525Y-137033500D01*
X175386900Y-137135125D01*
X174416044Y-137135125D01*
X174938220Y-136353634D01*
X175006383Y-136189075D01*
X175006383Y-136189070D01*
X175056693Y-135936142D01*
X175386900Y-135936142D01*
X175386900Y-136930875D01*
X175488525Y-137032500D01*
X176656500Y-137032500D01*
X176656500Y-135712125D01*
X176554875Y-135610500D01*
X175712542Y-135610500D01*
X175563136Y-135672386D01*
X175448786Y-135786736D01*
X175386900Y-135936142D01*
X175056693Y-135936142D01*
X175126639Y-135584500D01*
X179187609Y-135584500D01*
X178710954Y-135679313D01*
X178298904Y-135954636D01*
X178023581Y-136366686D01*
X177927100Y-136851727D01*
X177927100Y-135936142D01*
X177865214Y-135786736D01*
X177750864Y-135672386D01*
X177601458Y-135610500D01*
X176759125Y-135610500D01*
X176657500Y-135712125D01*
X176657500Y-137032500D01*
X176677500Y-137032500D01*
X176677500Y-137033500D01*
X176657500Y-137033500D01*
X176657500Y-138353875D01*
X176759125Y-138455500D01*
X177601458Y-138455500D01*
X177750864Y-138393614D01*
X177865214Y-138279264D01*
X177927100Y-138129858D01*
X177927100Y-137214273D01*
X178023581Y-137699314D01*
X178298904Y-138111364D01*
X178710954Y-138386687D01*
X179197000Y-138483368D01*
X179683046Y-138386687D01*
X180095096Y-138111364D01*
X180370419Y-137699314D01*
X180467000Y-137213771D01*
X180563581Y-137699314D01*
X180838904Y-138111364D01*
X181250954Y-138386687D01*
X181737000Y-138483368D01*
X182223046Y-138386687D01*
X182635096Y-138111364D01*
X182910419Y-137699314D01*
X183007000Y-137213771D01*
X183103581Y-137699314D01*
X183378904Y-138111364D01*
X183790954Y-138386687D01*
X184277000Y-138483368D01*
X184763046Y-138386687D01*
X185175096Y-138111364D01*
X185450419Y-137699314D01*
X185547100Y-137213268D01*
X185547100Y-137061956D01*
X205714364Y-137061956D01*
X205834001Y-137351500D01*
X206055335Y-137573221D01*
X206344669Y-137693363D01*
X206657956Y-137693636D01*
X206947500Y-137573999D01*
X207169221Y-137352665D01*
X207289363Y-137063331D01*
X207289636Y-136750044D01*
X207169999Y-136460500D01*
X206948665Y-136238779D01*
X206659331Y-136118637D01*
X206346044Y-136118364D01*
X206056500Y-136238001D01*
X205834779Y-136459335D01*
X205714637Y-136748669D01*
X205714364Y-137061956D01*
X185547100Y-137061956D01*
X185547100Y-136852732D01*
X185450419Y-136366686D01*
X185175096Y-135954636D01*
X184763046Y-135679313D01*
X184286391Y-135584500D01*
X194437000Y-135584500D01*
X194481100Y-135575728D01*
X194526059Y-135575728D01*
X194567597Y-135558523D01*
X194611695Y-135549751D01*
X194649078Y-135524772D01*
X194690618Y-135507566D01*
X194722412Y-135475772D01*
X194759794Y-135450794D01*
X194784772Y-135413412D01*
X194816566Y-135381618D01*
X194833772Y-135340078D01*
X194858751Y-135302695D01*
X194867523Y-135258597D01*
X194879575Y-135229500D01*
X195185411Y-135229500D01*
X195185300Y-135357033D01*
M02*
