G04 #@! TF.FileFunction,Copper,L4,Bot,Signal*
%FSLAX46Y46*%
G04 Gerber Fmt 4.6, Leading zero omitted, Abs format (unit mm)*
G04 Created by KiCad (PCBNEW 4.0.2-stable) date Sun 10 Apr 2016 09:46:26 PM EDT*
%MOMM*%
G01*
G04 APERTURE LIST*
%ADD10C,0.150000*%
%ADD11R,1.727200X2.032000*%
%ADD12O,1.727200X2.032000*%
%ADD13R,1.500000X1.500000*%
%ADD14C,1.500000*%
%ADD15R,1.450000X0.450000*%
%ADD16R,2.032000X1.727200*%
%ADD17O,2.032000X1.727200*%
%ADD18R,0.600000X0.500000*%
%ADD19R,0.500000X0.600000*%
%ADD20O,1.250000X0.950000*%
%ADD21O,1.000000X1.550000*%
%ADD22R,0.800100X0.800100*%
%ADD23R,0.400000X0.600000*%
%ADD24R,0.600000X0.400000*%
%ADD25R,0.600000X0.700000*%
%ADD26R,0.700000X0.600000*%
%ADD27C,0.762000*%
%ADD28C,0.203200*%
%ADD29C,1.000000*%
%ADD30C,0.500000*%
G04 APERTURE END LIST*
D10*
D11*
X176657000Y-137033000D03*
D12*
X179197000Y-137033000D03*
X181737000Y-137033000D03*
X184277000Y-137033000D03*
D13*
X198882000Y-135128000D03*
D14*
X196342000Y-135128000D03*
D13*
X221107000Y-142113000D03*
D14*
X221107000Y-139573000D03*
D15*
X190598000Y-144444000D03*
X190598000Y-143794000D03*
X190598000Y-143144000D03*
X190598000Y-142494000D03*
X190598000Y-141844000D03*
X190598000Y-141194000D03*
X190598000Y-140544000D03*
X196498000Y-140544000D03*
X196498000Y-141194000D03*
X196498000Y-141844000D03*
X196498000Y-142494000D03*
X196498000Y-143144000D03*
X196498000Y-143794000D03*
X196498000Y-144444000D03*
D16*
X220357000Y-151638000D03*
D17*
X220357000Y-149098000D03*
X220357000Y-146558000D03*
D18*
X194606000Y-138938000D03*
X193506000Y-138938000D03*
D19*
X189230000Y-143468000D03*
X189230000Y-144568000D03*
D20*
X195111100Y-150075460D03*
X200111100Y-150075460D03*
D21*
X194111100Y-152775460D03*
X201111100Y-152775460D03*
D22*
X204150000Y-142986760D03*
X202250000Y-142986760D03*
X203200000Y-140987780D03*
X204200760Y-136972000D03*
X204200760Y-138872000D03*
X202201780Y-137922000D03*
X208010760Y-136972000D03*
X208010760Y-138872000D03*
X206011780Y-137922000D03*
D23*
X196538000Y-137160000D03*
X195638000Y-137160000D03*
X196654000Y-138684000D03*
X197554000Y-138684000D03*
D24*
X200660000Y-139388000D03*
X200660000Y-138488000D03*
X211836000Y-136456000D03*
X211836000Y-137356000D03*
D23*
X191066000Y-137160000D03*
X191966000Y-137160000D03*
X194506000Y-137414000D03*
X193606000Y-137414000D03*
X192728000Y-146050000D03*
X191828000Y-146050000D03*
D24*
X198374000Y-143198000D03*
X198374000Y-142298000D03*
D23*
X194368000Y-146050000D03*
X195268000Y-146050000D03*
D24*
X198374000Y-144330000D03*
X198374000Y-145230000D03*
D25*
X199074000Y-137160000D03*
X197674000Y-137160000D03*
X192216000Y-138684000D03*
X190816000Y-138684000D03*
D26*
X210312000Y-137606000D03*
X210312000Y-136206000D03*
D27*
X210566000Y-140716000D03*
X214884000Y-138922000D03*
X203962000Y-145034000D03*
X204978000Y-147574000D03*
X209042000Y-138684000D03*
X204978000Y-145034000D03*
X205994000Y-145034000D03*
X206502000Y-136906000D03*
X198882000Y-138430000D03*
X196596000Y-146050000D03*
X193548000Y-141986000D03*
X191262000Y-146812000D03*
X188222000Y-138938000D03*
X211852000Y-138684000D03*
X206248000Y-148082000D03*
X218948000Y-144780000D03*
X215646000Y-139954000D03*
X198882000Y-151384000D03*
X192024000Y-153416000D03*
X218440000Y-149098000D03*
X211582000Y-150368000D03*
X218948000Y-153416000D03*
X189738000Y-148844000D03*
X194310000Y-143002000D03*
X190246000Y-147066000D03*
X189230000Y-142494000D03*
X207010000Y-145034000D03*
X201168000Y-143002000D03*
X212598000Y-153023000D03*
X207264000Y-148082000D03*
D28*
X210566000Y-140716000D02*
X214376000Y-140716000D01*
D29*
X214884000Y-138938000D02*
X214376000Y-139446000D01*
X214376000Y-139446000D02*
X214376000Y-140716000D01*
D30*
X214884000Y-138922000D02*
X214884000Y-138938000D01*
D29*
X214376000Y-143117000D02*
X220357000Y-149098000D01*
X214376000Y-140716000D02*
X214376000Y-143117000D01*
D28*
X204150000Y-144846000D02*
X204150000Y-142986760D01*
X203962000Y-145034000D02*
X204150000Y-144846000D01*
X204978000Y-147574000D02*
X205740000Y-146812000D01*
X209042000Y-144526000D02*
X209042000Y-138684000D01*
X206756000Y-146812000D02*
X209042000Y-144526000D01*
X205740000Y-146812000D02*
X206756000Y-146812000D01*
X204978000Y-145034000D02*
X204216000Y-145796000D01*
X198940000Y-145796000D02*
X198374000Y-145230000D01*
X204216000Y-145796000D02*
X198940000Y-145796000D01*
X196498000Y-144444000D02*
X196498000Y-144936000D01*
X196792000Y-145230000D02*
X198374000Y-145230000D01*
X196498000Y-144936000D02*
X196792000Y-145230000D01*
X190598000Y-141194000D02*
X189514000Y-141194000D01*
X189484000Y-146050000D02*
X191828000Y-146050000D01*
X188468000Y-145034000D02*
X189484000Y-146050000D01*
X188468000Y-142240000D02*
X188468000Y-145034000D01*
X189514000Y-141194000D02*
X188468000Y-142240000D01*
X197358000Y-146304000D02*
X204724000Y-146304000D01*
X205994000Y-145034000D02*
X204724000Y-146304000D01*
X191828000Y-146108000D02*
X192532000Y-146812000D01*
X192532000Y-146812000D02*
X196850000Y-146812000D01*
X196850000Y-146812000D02*
X197358000Y-146304000D01*
X191828000Y-146108000D02*
X191828000Y-146050000D01*
X190598000Y-140544000D02*
X190598000Y-141194000D01*
D30*
X206011780Y-137922000D02*
X206502000Y-137431780D01*
X206502000Y-137431780D02*
X206502000Y-136906000D01*
D28*
X198882000Y-138430000D02*
X197808000Y-138430000D01*
X197808000Y-138430000D02*
X197554000Y-138684000D01*
X195268000Y-146050000D02*
X196596000Y-146050000D01*
X193548000Y-141986000D02*
X194564000Y-141986000D01*
X195072000Y-142494000D02*
X196498000Y-142494000D01*
X194564000Y-141986000D02*
X195072000Y-142494000D01*
X193548000Y-141986000D02*
X193548000Y-143510000D01*
X189950000Y-145288000D02*
X189230000Y-144568000D01*
X191770000Y-145288000D02*
X189950000Y-145288000D01*
X193548000Y-143510000D02*
X191770000Y-145288000D01*
X193548000Y-138980000D02*
X193548000Y-141986000D01*
X193548000Y-138980000D02*
X193506000Y-138938000D01*
X193606000Y-137414000D02*
X193506000Y-137514000D01*
X193506000Y-137514000D02*
X193506000Y-138938000D01*
X193606000Y-138838000D02*
X193506000Y-138938000D01*
D30*
X211852000Y-138684000D02*
X211836000Y-138684000D01*
D28*
X189230000Y-143468000D02*
X189230000Y-142494000D01*
X189230000Y-142494000D02*
X190598000Y-142494000D01*
X202250000Y-142986760D02*
X202234760Y-143002000D01*
X202234760Y-143002000D02*
X201168000Y-143002000D01*
D30*
X212598000Y-153023000D02*
X212598000Y-152908000D01*
D28*
X194606000Y-138938000D02*
X194606000Y-141012000D01*
X195438000Y-141844000D02*
X196498000Y-141844000D01*
X194606000Y-141012000D02*
X195438000Y-141844000D01*
X194506000Y-137414000D02*
X194606000Y-137514000D01*
X194606000Y-137514000D02*
X194606000Y-138938000D01*
X194506000Y-137414000D02*
X194506000Y-137254402D01*
X194506000Y-137254402D02*
X194056000Y-136804402D01*
X194056000Y-136804402D02*
X192321598Y-136804402D01*
X192321598Y-136804402D02*
X191966000Y-137160000D01*
X194506000Y-138838000D02*
X194606000Y-138938000D01*
D30*
X198882000Y-135128000D02*
X199136000Y-135128000D01*
X199136000Y-135128000D02*
X200088500Y-136080500D01*
X200088500Y-136080500D02*
X201930000Y-137922000D01*
X201930000Y-137922000D02*
X202201780Y-137922000D01*
D28*
X199074000Y-137160000D02*
X199074000Y-137095000D01*
X199074000Y-137095000D02*
X200088500Y-136080500D01*
X190598000Y-144444000D02*
X191852000Y-144444000D01*
X191852000Y-144444000D02*
X192582804Y-143713196D01*
X192582804Y-143713196D02*
X192582804Y-139050804D01*
X192582804Y-139050804D02*
X192216000Y-138684000D01*
X190816000Y-138684000D02*
X190816000Y-139355598D01*
X190816000Y-139355598D02*
X191008000Y-139547598D01*
X190816000Y-137410000D02*
X190816000Y-138684000D01*
X191008000Y-139547598D02*
X191684338Y-139547598D01*
X191684338Y-139547598D02*
X192176402Y-140039662D01*
X192176402Y-140039662D02*
X192176402Y-143357598D01*
X192176402Y-143357598D02*
X191740000Y-143794000D01*
X191740000Y-143794000D02*
X190598000Y-143794000D01*
X191066000Y-137160000D02*
X190816000Y-137410000D01*
X208010760Y-138872000D02*
X208010760Y-138064240D01*
X208010760Y-138064240D02*
X208153000Y-137922000D01*
D30*
X204200760Y-138872000D02*
X208010760Y-138872000D01*
D28*
X211836000Y-137356000D02*
X211586000Y-137606000D01*
X208153000Y-137922000D02*
X209996000Y-137922000D01*
X210312000Y-137606000D02*
X210312000Y-137606000D01*
X209996000Y-137922000D02*
X210312000Y-137606000D01*
X211586000Y-137606000D02*
X210312000Y-137606000D01*
X210312000Y-136206000D02*
X209546000Y-136972000D01*
X210312000Y-136206000D02*
X211586000Y-136206000D01*
X200660000Y-138488000D02*
X200983000Y-138811000D01*
X204150000Y-136972000D02*
X204200760Y-136972000D01*
X203327000Y-137795000D02*
X204150000Y-136972000D01*
X203327000Y-138303000D02*
X203327000Y-137795000D01*
X202819000Y-138811000D02*
X203327000Y-138303000D01*
X200983000Y-138811000D02*
X202819000Y-138811000D01*
X204200760Y-136972000D02*
X205028760Y-136144000D01*
X205028760Y-136144000D02*
X207182760Y-136144000D01*
X207182760Y-136144000D02*
X208010760Y-136972000D01*
X209546000Y-136972000D02*
X208010760Y-136972000D01*
X200683240Y-138488000D02*
X200660000Y-138488000D01*
X200660000Y-138488000D02*
X200718000Y-138430000D01*
X211586000Y-136206000D02*
X211836000Y-136456000D01*
X190598000Y-141844000D02*
X191770000Y-141844000D01*
X191770000Y-141844000D02*
X191770000Y-141732000D01*
X190754000Y-136398000D02*
X189992000Y-137160000D01*
X195638000Y-137160000D02*
X194876000Y-136398000D01*
X190754000Y-136398000D02*
X194876000Y-136398000D01*
X191374000Y-143144000D02*
X190598000Y-143144000D01*
X191770000Y-142748000D02*
X191374000Y-143144000D01*
X191770000Y-140208000D02*
X191770000Y-141732000D01*
X191770000Y-141732000D02*
X191770000Y-142748000D01*
X191516000Y-139954000D02*
X191770000Y-140208000D01*
X190246000Y-139954000D02*
X191516000Y-139954000D01*
X189992000Y-139700000D02*
X190246000Y-139954000D01*
X189992000Y-137160000D02*
X189992000Y-139700000D01*
X195638000Y-137160000D02*
X195638000Y-137668000D01*
X195638000Y-137668000D02*
X196654000Y-138684000D01*
X196498000Y-143794000D02*
X198374000Y-143794000D01*
X198374000Y-143794000D02*
X198374000Y-143764000D01*
X198374000Y-143198000D02*
X198374000Y-143764000D01*
X198374000Y-143764000D02*
X198374000Y-144330000D01*
X198374000Y-143198000D02*
X198178000Y-143198000D01*
X198374000Y-142298000D02*
X198432000Y-142298000D01*
X196498000Y-141194000D02*
X197836000Y-141194000D01*
X198374000Y-141732000D02*
X198374000Y-142298000D01*
X197836000Y-141194000D02*
X198374000Y-141732000D01*
X196498000Y-141194000D02*
X196498000Y-140544000D01*
X200660000Y-139388000D02*
X202259780Y-140987780D01*
X202259780Y-140987780D02*
X203200000Y-140987780D01*
X196498000Y-143144000D02*
X195438000Y-143144000D01*
X193548000Y-145034000D02*
X193548000Y-146050000D01*
X195438000Y-143144000D02*
X193548000Y-145034000D01*
X192728000Y-146050000D02*
X193548000Y-146050000D01*
X193548000Y-146050000D02*
X194368000Y-146050000D01*
X197674000Y-137160000D02*
X196538000Y-137160000D01*
M02*
